# Blender 4.5.3 LTS
# www.blender.org
o Cube
v -0.096356 0.010000 0.426962
v -0.096356 -0.002974 0.426962
v -0.125000 -0.000540 -0.134978
v -0.125000 -0.020540 -0.134978
v 0.000000 -0.002974 0.426962
v 0.000000 -0.000540 -0.134978
v 0.000000 -0.020540 -0.134978
v 0.000000 0.010000 0.426962
v -0.125000 -0.000540 0.259047
v -0.125000 -0.020540 0.259047
v -0.096355 -0.020540 -0.134978
v -0.096356 -0.000540 0.259047
v -0.096356 -0.020540 0.259047
v -0.096355 -0.000540 -0.134978
v -0.096355 0.056032 -0.136041
v 0.000000 0.056032 -0.136041
v 0.000000 0.056032 0.215185
v -0.096356 0.056032 0.215185
v 0.000000 0.040547 0.463023
v 0.000000 0.034260 0.463102
v -0.096356 0.034260 0.463102
v -0.096356 0.040547 0.463022
v -0.077650 -0.016594 0.381849
v 0.000000 -0.016594 0.381849
v 0.000000 -0.034160 0.259379
v 0.000000 -0.034160 -0.134646
v -0.077649 -0.034160 0.259379
v -0.077649 -0.034160 -0.134646
v -0.093556 0.147387 -0.133893
v -0.067218 0.136477 -0.133893
v -0.056308 0.110139 -0.133893
v -0.067218 0.083800 -0.133893
v -0.093556 0.072891 -0.133893
v -0.119895 0.083800 -0.133893
v -0.130805 0.110139 -0.133893
v -0.119895 0.136477 -0.133893
v -0.093556 0.147387 -0.111774
v -0.067218 0.136477 -0.111774
v -0.056308 0.110139 -0.111774
v -0.067218 0.083800 -0.111774
v -0.093556 0.072891 -0.111774
v -0.119895 0.083800 -0.111774
v -0.130805 0.110139 -0.111774
v -0.119895 0.136477 -0.111774
v -0.070272 0.133424 -0.133893
v -0.093556 0.143068 -0.133893
v -0.060627 0.110139 -0.133893
v -0.070272 0.086854 -0.133893
v -0.093556 0.077209 -0.133893
v -0.116841 0.086854 -0.133893
v -0.126486 0.110139 -0.133893
v -0.116841 0.133424 -0.133893
v -0.068458 0.135237 -0.111774
v -0.093556 0.145633 -0.111774
v -0.058062 0.110139 -0.111774
v -0.068458 0.085040 -0.111774
v -0.093556 0.074644 -0.111774
v -0.118655 0.085040 -0.111774
v -0.129051 0.110139 -0.111774
v -0.118655 0.135237 -0.111774
v 0.000000 0.147239 -0.133893
v 0.026338 0.136329 -0.133893
v 0.037248 0.109990 -0.133893
v 0.026338 0.083652 -0.133893
v 0.000000 0.072742 -0.133893
v 0.000000 0.147239 -0.111774
v 0.037248 0.109990 -0.111774
v 0.000000 0.072742 -0.111774
v -0.026338 0.083652 -0.111774
v 0.000000 0.142920 -0.133893
v 0.023285 0.086706 -0.133893
v 0.000000 0.077061 -0.133893
v -0.023285 0.086706 -0.133893
v 0.000000 0.145485 -0.111774
v 0.000000 0.074496 -0.111774
v -0.025098 0.084892 -0.111774
v -0.035495 0.109990 -0.111774
v -0.025098 0.135089 -0.111774
v 0.000787 0.136512 -0.133759
v 0.000787 0.136512 -0.133172
v -0.000787 0.136512 -0.133172
v 0.001512 0.101150 -0.133759
v 0.001512 0.118831 -0.133759
v 0.001512 0.101150 -0.133172
v -0.001512 0.101150 -0.133172
v -0.001512 0.101150 -0.133759
v 0.026522 0.110778 -0.133759
v -0.026522 0.110778 -0.133759
v 0.026522 0.109203 -0.133759
v -0.026522 0.109203 -0.133759
v 0.008841 0.111502 -0.133759
v -0.008841 0.111502 -0.133759
v -0.008841 0.111502 -0.133172
v 0.008841 0.111502 -0.133172
v 0.008841 0.108479 -0.133172
v -0.092769 0.083617 -0.134186
v -0.092769 0.136661 -0.134186
v -0.092769 0.083617 -0.133599
v -0.092769 0.136661 -0.133599
v -0.094344 0.083617 -0.134186
v -0.094344 0.136661 -0.134186
v -0.094344 0.083617 -0.133599
v -0.094344 0.136661 -0.133599
v -0.092044 0.101298 -0.134186
v -0.092044 0.118979 -0.134186
v -0.092044 0.118979 -0.133599
v -0.092044 0.101298 -0.133599
v -0.095068 0.118979 -0.133599
v -0.095068 0.101298 -0.133599
v -0.095068 0.118979 -0.134186
v -0.095068 0.101298 -0.134186
v -0.067035 0.110926 -0.134186
v -0.120078 0.110926 -0.134186
v -0.067035 0.110926 -0.133599
v -0.120078 0.110926 -0.133599
v -0.067035 0.109352 -0.134186
v -0.120078 0.109352 -0.134186
v -0.067035 0.109352 -0.133599
v -0.120078 0.109352 -0.133599
v -0.084716 0.111651 -0.134186
v -0.102397 0.111651 -0.134186
v -0.102397 0.111651 -0.133599
v -0.084716 0.111651 -0.133599
v -0.102397 0.108627 -0.133599
v -0.084716 0.108627 -0.133599
v -0.102397 0.108627 -0.134186
v -0.084716 0.108627 -0.134186
v -0.086435 0.054580 -0.129955
v -0.086435 0.077050 -0.129955
v -0.086435 0.054580 -0.115712
v -0.086435 0.077050 -0.115712
v -0.100678 0.054580 -0.129955
v -0.100678 0.077050 -0.129955
v -0.100678 0.054580 -0.115712
v -0.100678 0.077050 -0.115712
v -0.090142 0.043121 -0.126247
v -0.090142 0.043121 -0.119419
v -0.096970 0.043121 -0.126247
v -0.096970 0.043121 -0.119419
v 0.007121 0.076493 -0.130039
v 0.007121 0.054023 -0.115796
v -0.007121 0.054023 -0.130039
v -0.007121 0.076493 -0.130039
v 0.003414 0.042564 -0.119503
v -0.003414 0.042564 -0.119503
v -0.024742 0.045425 0.121193
v -0.024742 0.114649 0.121193
v -0.024742 0.045425 0.197780
v -0.024742 0.114649 0.193769
v -0.024742 0.095124 0.190418
v -0.024742 0.095124 0.121193
v 0.000000 0.045425 0.197780
v 0.000000 0.114649 0.193769
v 0.000000 0.045425 0.121193
v 0.000000 0.114649 0.121193
v 0.000000 0.095124 0.121193
v 0.000000 0.095124 0.190418
v -0.046310 0.095124 0.177623
v -0.046310 0.045425 0.184985
v -0.046310 0.045425 0.121193
v -0.046310 0.114649 0.180974
v -0.046310 0.114649 0.121193
v -0.046310 0.095124 0.121193
v -0.071534 0.053801 0.197956
v -0.071534 0.073495 0.192690
v -0.082243 0.053801 0.195087
v -0.079609 0.073495 0.190526
v -0.090082 0.053801 0.187248
v -0.085521 0.073495 0.184615
v -0.092951 0.053801 0.176540
v -0.087685 0.073495 0.176540
v -0.090082 0.053801 0.165831
v -0.085521 0.073495 0.168464
v -0.082243 0.053801 0.157992
v -0.079609 0.073495 0.162553
v -0.071534 0.053801 0.155123
v -0.071534 0.073495 0.160389
v -0.060826 0.053801 0.157992
v -0.063459 0.073495 0.162553
v -0.052987 0.053801 0.165831
v -0.057548 0.073495 0.168464
v -0.050118 0.053801 0.176540
v -0.055384 0.073495 0.176540
v -0.052987 0.053801 0.187248
v -0.057548 0.073495 0.184615
v -0.060826 0.053801 0.195087
v -0.063459 0.073495 0.190526
v -0.071534 0.062909 0.194002
v -0.080266 0.062909 0.191663
v -0.086658 0.062909 0.185271
v -0.088997 0.062909 0.176540
v -0.086658 0.062909 0.167808
v -0.080266 0.062909 0.161416
v -0.071534 0.062909 0.159077
v -0.062803 0.062909 0.161416
v -0.056411 0.062909 0.167808
v -0.054071 0.062909 0.176540
v -0.056411 0.062909 0.185271
v -0.062803 0.062909 0.191663
v 0.022626 0.052439 0.073961
v 0.030403 0.052439 0.081737
v 0.030403 0.052439 0.126990
v 0.017111 0.157334 0.127357
v 0.022993 0.157334 0.121475
v -0.017111 0.157334 0.081371
v -0.030403 0.052439 0.126990
v -0.022993 0.157334 0.121475
v 0.021453 0.165604 0.074568
v 0.029795 0.165604 0.082911
v 0.029795 0.165604 0.125817
v 0.021453 0.157501 0.074568
v 0.029795 0.157501 0.082911
v -0.029795 0.157501 0.082911
v 0.021453 0.157501 0.134159
v 0.029795 0.157501 0.125817
v -0.021453 0.157501 0.134159
v -0.029795 0.157501 0.125817
v -0.021453 0.165604 0.134159
v 0.021453 0.165604 0.134159
v 0.001009 0.157476 0.081502
v -0.001009 0.157476 0.083520
v -0.001009 0.162556 0.083520
v -0.000530 0.251073 0.081981
v 0.017267 0.227544 0.079507
v 0.017267 0.224289 0.082763
v -0.017267 0.224289 0.082763
v 0.096356 0.010000 0.426962
v 0.096356 -0.002974 0.426962
v 0.125000 -0.000540 -0.134978
v 0.125000 -0.020540 -0.134978
v 0.125000 -0.000540 0.259047
v 0.125000 -0.020540 0.259047
v 0.096355 -0.020540 -0.134978
v 0.096356 -0.000540 0.259047
v 0.096356 -0.020540 0.259047
v 0.096355 -0.000540 -0.134978
v 0.096355 0.056032 -0.136041
v 0.096356 0.056032 0.215185
v 0.096356 0.034260 0.463102
v 0.096356 0.040547 0.463022
v 0.077650 -0.016594 0.381849
v 0.077649 -0.034160 0.259379
v 0.077649 -0.034160 -0.134646
v 0.093556 0.147387 -0.133893
v 0.067218 0.136477 -0.133893
v 0.056308 0.110139 -0.133893
v 0.067218 0.083800 -0.133893
v 0.093556 0.072891 -0.133893
v 0.119895 0.083800 -0.133893
v 0.130805 0.110139 -0.133893
v 0.119895 0.136477 -0.133893
v 0.093556 0.147387 -0.111774
v 0.067218 0.136477 -0.111774
v 0.056308 0.110139 -0.111774
v 0.067218 0.083800 -0.111774
v 0.093556 0.072891 -0.111774
v 0.119895 0.083800 -0.111774
v 0.130805 0.110139 -0.111774
v 0.119895 0.136477 -0.111774
v 0.070272 0.133424 -0.133893
v 0.093556 0.143068 -0.133893
v 0.060627 0.110139 -0.133893
v 0.070272 0.086854 -0.133893
v 0.093556 0.077209 -0.133893
v 0.116841 0.086854 -0.133893
v 0.126486 0.110139 -0.133893
v 0.116841 0.133424 -0.133893
v 0.068458 0.135237 -0.111774
v 0.093556 0.145633 -0.111774
v 0.058062 0.110139 -0.111774
v 0.068458 0.085040 -0.111774
v 0.093556 0.074644 -0.111774
v 0.118655 0.085040 -0.111774
v 0.129051 0.110139 -0.111774
v 0.118655 0.135237 -0.111774
v -0.026338 0.136329 -0.133893
v -0.037248 0.109990 -0.133893
v -0.026338 0.083652 -0.133893
v -0.026338 0.136329 -0.111774
v -0.037248 0.109990 -0.111774
v 0.026338 0.083652 -0.111774
v 0.026338 0.136329 -0.111774
v -0.023285 0.133275 -0.133893
v -0.032930 0.109990 -0.133893
v 0.032929 0.109990 -0.133893
v 0.023285 0.133275 -0.133893
v 0.025098 0.084892 -0.111774
v 0.035495 0.109990 -0.111774
v 0.025098 0.135089 -0.111774
v -0.000787 0.083469 -0.133759
v -0.000787 0.136512 -0.133759
v -0.000787 0.083469 -0.133172
v 0.000787 0.083469 -0.133759
v 0.000787 0.083469 -0.133172
v -0.001512 0.118831 -0.133759
v -0.001512 0.118831 -0.133172
v 0.001512 0.118831 -0.133172
v -0.026522 0.110778 -0.133172
v 0.026522 0.110778 -0.133172
v -0.026522 0.109203 -0.133172
v 0.026522 0.109203 -0.133172
v -0.008841 0.108479 -0.133172
v 0.008841 0.108479 -0.133759
v -0.008841 0.108479 -0.133759
v 0.092769 0.083617 -0.134186
v 0.092769 0.136661 -0.134186
v 0.092769 0.083617 -0.133599
v 0.092769 0.136661 -0.133599
v 0.094344 0.083617 -0.134186
v 0.094344 0.136661 -0.134186
v 0.094344 0.083617 -0.133599
v 0.094344 0.136661 -0.133599
v 0.092044 0.101298 -0.134186
v 0.092044 0.118979 -0.134186
v 0.092044 0.118979 -0.133599
v 0.092044 0.101298 -0.133599
v 0.095068 0.118979 -0.133599
v 0.095068 0.101298 -0.133599
v 0.095068 0.118979 -0.134186
v 0.095068 0.101298 -0.134186
v 0.067035 0.110926 -0.134186
v 0.120078 0.110926 -0.134186
v 0.067035 0.110926 -0.133599
v 0.120078 0.110926 -0.133599
v 0.067035 0.109352 -0.134186
v 0.120078 0.109352 -0.134186
v 0.067035 0.109352 -0.133599
v 0.120078 0.109352 -0.133599
v 0.084716 0.111651 -0.134186
v 0.102397 0.111651 -0.134186
v 0.102397 0.111651 -0.133599
v 0.084716 0.111651 -0.133599
v 0.102397 0.108627 -0.133599
v 0.084716 0.108627 -0.133599
v 0.102397 0.108627 -0.134186
v 0.084716 0.108627 -0.134186
v 0.086435 0.054580 -0.129955
v 0.086435 0.077050 -0.129955
v 0.086435 0.054580 -0.115712
v 0.086435 0.077050 -0.115712
v 0.100678 0.054580 -0.129955
v 0.100678 0.077050 -0.129955
v 0.100678 0.054580 -0.115712
v 0.100678 0.077050 -0.115712
v 0.090142 0.043121 -0.126247
v 0.090142 0.043121 -0.119419
v 0.096970 0.043121 -0.126247
v 0.096970 0.043121 -0.119419
v -0.007121 0.054023 -0.115796
v -0.007121 0.076493 -0.115796
v 0.007121 0.054023 -0.130039
v 0.007121 0.076493 -0.115796
v -0.003414 0.042564 -0.126331
v 0.003414 0.042564 -0.126331
v 0.024742 0.045425 0.121193
v 0.024742 0.114649 0.121193
v 0.024742 0.045425 0.197780
v 0.024742 0.114649 0.193769
v 0.024742 0.095124 0.190418
v 0.024742 0.095124 0.121193
v 0.046310 0.095124 0.177623
v 0.046310 0.045425 0.184985
v 0.046310 0.045425 0.121193
v 0.046310 0.114649 0.180974
v 0.046310 0.114649 0.121193
v 0.046310 0.095124 0.121193
v 0.071534 0.053801 0.197956
v 0.071534 0.073495 0.192690
v 0.082243 0.053801 0.195087
v 0.079609 0.073495 0.190526
v 0.090082 0.053801 0.187248
v 0.085521 0.073495 0.184615
v 0.092951 0.053801 0.176540
v 0.087685 0.073495 0.176540
v 0.090082 0.053801 0.165831
v 0.085521 0.073495 0.168464
v 0.082243 0.053801 0.157992
v 0.079609 0.073495 0.162553
v 0.071534 0.053801 0.155123
v 0.071534 0.073495 0.160389
v 0.060826 0.053801 0.157992
v 0.063459 0.073495 0.162553
v 0.052987 0.053801 0.165831
v 0.057548 0.073495 0.168464
v 0.050118 0.053801 0.176540
v 0.055384 0.073495 0.176540
v 0.052987 0.053801 0.187248
v 0.057548 0.073495 0.184615
v 0.060826 0.053801 0.195087
v 0.063459 0.073495 0.190526
v 0.071534 0.062909 0.194002
v 0.080266 0.062909 0.191663
v 0.086658 0.062909 0.185271
v 0.088997 0.062909 0.176540
v 0.086658 0.062909 0.167808
v 0.080266 0.062909 0.161416
v 0.071534 0.062909 0.159077
v 0.062803 0.062909 0.161416
v 0.056411 0.062909 0.167808
v 0.054071 0.062909 0.176540
v 0.056411 0.062909 0.185271
v 0.062803 0.062909 0.191663
v -0.022626 0.052439 0.073961
v -0.030403 0.052439 0.081737
v -0.022993 0.157334 0.087252
v -0.022626 0.052439 0.134767
v -0.017111 0.157334 0.127357
v 0.017111 0.157334 0.081371
v 0.022993 0.157334 0.087252
v 0.022626 0.052439 0.134767
v -0.021453 0.165604 0.074568
v -0.029795 0.165604 0.082911
v -0.029795 0.165604 0.125817
v -0.021453 0.157501 0.074568
v -0.001009 0.157476 0.081502
v -0.001009 0.162556 0.081502
v 0.001009 0.162556 0.081502
v 0.001009 0.157476 0.083520
v 0.001009 0.162556 0.083520
v -0.000530 0.251073 0.083041
v 0.000530 0.251073 0.083041
v 0.000530 0.251073 0.081981
v -0.017267 0.224289 0.079507
v -0.017267 0.227544 0.079507
v -0.017267 0.227544 0.082763
v 0.017267 0.224289 0.079507
v 0.017267 0.227544 0.082763
vn -0.0000 -0.9573 0.2890
vn -1.0000 -0.0000 -0.0000
vn -0.0000 -0.0000 1.0000
vn -0.0000 -0.0000 -1.0000
vn -0.0000 1.0000 -0.0000
vn -0.0000 0.9980 -0.0626
vn -0.9858 -0.0000 0.1682
vn -0.5011 -0.8591 0.1039
vn -0.0000 -0.9946 0.1040
vn -0.0000 -0.0188 -0.9998
vn -0.0000 -1.0000 -0.0000
vn -0.0000 0.0126 0.9999
vn -0.0000 -0.8303 0.5574
vn -0.0000 0.9981 0.0624
vn -0.0000 -0.9899 0.1420
vn -0.0000 -0.0244 -0.9997
vn -0.5886 -0.8084 -0.0000
vn -0.9239 0.3827 -0.0000
vn -0.3827 -0.9239 -0.0000
vn 0.9239 -0.3827 -0.0000
vn 0.3827 0.9239 -0.0000
vn -0.3827 0.9239 -0.0000
vn -0.9239 -0.3827 -0.0000
vn 0.3827 -0.9239 -0.0000
vn 0.9239 0.3827 -0.0000
vn 0.9186 -0.3805 0.1065
vn 0.3805 0.9186 0.1065
vn -0.9186 0.3805 0.1065
vn -0.3805 -0.9186 0.1065
vn 0.3805 -0.9186 0.1065
vn 0.9186 0.3805 0.1065
vn -0.3805 0.9186 0.1065
vn -0.9186 -0.3805 0.1065
vn 0.9992 0.0409 0.0001
vn -0.9992 0.0410 0.0001
vn -0.9992 -0.0409 -0.0000
vn 0.9992 -0.0410 -0.0000
vn 1.0000 -0.0000 0.0001
vn -0.0410 0.9992 -0.0000
vn -0.0410 -0.9992 -0.0000
vn -1.0000 -0.0000 -0.0001
vn 0.0410 -0.9992 -0.0000
vn 0.0410 0.9992 -0.0000
vn 0.9992 0.0410 -0.0000
vn -0.9992 0.0410 -0.0000
vn -0.9992 -0.0410 -0.0000
vn 1.0000 -0.0000 -0.0000
vn -0.9514 -0.3078 -0.0000
vn -0.0000 -0.3078 -0.9514
vn -0.0000 -0.3078 0.9514
vn 0.9514 -0.3078 -0.0000
vn -0.0000 -0.1692 0.9856
vn -0.0000 0.1465 0.9892
vn -0.5061 0.1264 0.8532
vn -0.5047 -0.1460 0.8508
vn -0.2570 0.1189 0.9591
vn -0.7021 0.1189 0.7021
vn -0.9591 0.1189 0.2570
vn -0.9591 0.1189 -0.2570
vn -0.7021 0.1189 -0.7021
vn -0.2570 0.1189 -0.9591
vn 0.2570 0.1189 -0.9591
vn 0.7021 0.1189 -0.7021
vn 0.9591 0.1189 -0.2570
vn 0.9591 0.1189 0.2570
vn 0.7021 0.1189 0.7021
vn 0.2570 0.1189 0.9591
vn 0.2387 0.3867 0.8908
vn 0.6521 0.3867 0.6521
vn 0.8908 0.3867 0.2387
vn 0.8908 0.3867 -0.2387
vn 0.6521 0.3867 -0.6521
vn 0.2387 0.3867 -0.8908
vn -0.2387 0.3867 -0.8908
vn -0.6521 0.3867 -0.6521
vn -0.8908 0.3867 -0.2387
vn -0.8908 0.3867 0.2387
vn -0.6521 0.3867 0.6521
vn -0.2387 0.3867 0.8908
vn 0.7044 0.0868 -0.7044
vn 0.7044 0.0868 0.7044
vn -0.7044 0.0868 0.7044
vn -0.7044 0.0868 -0.7044
vn 0.9975 0.0705 -0.0000
vn -0.0000 0.0705 -0.9975
vn -0.0000 0.0705 0.9975
vn -0.9975 0.0705 -0.0000
vn 0.7071 -0.0000 0.7071
vn -0.7071 -0.0000 0.7071
vn -0.7071 -0.0000 -0.7071
vn 0.7071 -0.0000 -0.7071
vn -1.0000 0.0054 -0.0000
vn -0.0000 0.0054 -1.0000
vn -0.0000 0.0054 1.0000
vn 0.9858 -0.0000 0.1682
vn 0.5011 -0.8591 0.1039
vn 0.5886 -0.8084 -0.0000
vn 0.5061 0.1264 0.8532
vn 0.5047 -0.1460 0.8508
vn 1.0000 0.0054 -0.0000
vt 0.369865 0.000127
vt 0.444157 0.000680
vt 0.429016 0.036371
vt 0.370154 0.036354
vt 0.036377 0.695424
vt 0.050721 0.695820
vt 0.035496 0.978879
vt 0.020838 0.978082
vt 0.048940 0.500423
vt 0.058576 0.500429
vt 0.058537 0.571995
vt 0.048901 0.571990
vt 0.034355 0.999873
vt 0.019697 0.999076
vt 0.071473 0.695242
vt 0.056196 0.979990
vt 0.446214 0.129457
vt 0.428324 0.129811
vt 0.254102 0.056404
vt 0.252370 0.308840
vt 0.183322 0.308907
vt 0.183647 0.056161
vt 0.015898 0.692041
vt 0.254262 0.000342
vt 0.254226 0.014981
vt 0.183709 0.014808
vt 0.183732 0.000170
vt 0.000127 0.976936
vt 0.295337 0.057561
vt 0.292225 0.341738
vt 0.183333 0.490051
vt 0.254694 0.489807
vt 0.254709 0.494464
vt 0.183342 0.494704
vt 0.254803 0.526720
vt 0.183399 0.526928
vt 0.278516 0.464393
vt 0.259319 0.490098
vt 0.370900 0.129666
vt 0.426325 0.404216
vt 0.373154 0.411860
vt 0.442619 0.410566
vt 0.373242 0.422935
vt 0.425378 0.431053
vt 0.425632 0.431053
vt 0.414216 0.431053
vt 0.414850 0.431053
vt 0.414850 0.432955
vt 0.414216 0.432955
vt 0.414850 0.434858
vt 0.414216 0.434858
vt 0.414850 0.436760
vt 0.414216 0.436760
vt 0.414850 0.438662
vt 0.414216 0.438662
vt 0.416752 0.434858
vt 0.416752 0.436760
vt 0.412948 0.436760
vt 0.413582 0.436760
vt 0.413582 0.438662
vt 0.412948 0.438662
vt 0.412948 0.434858
vt 0.413582 0.434858
vt 0.412948 0.432955
vt 0.413582 0.432955
vt 0.412948 0.431053
vt 0.413582 0.431053
vt 0.398235 0.423190
vt 0.398869 0.423190
vt 0.398869 0.425092
vt 0.398235 0.425092
vt 0.398869 0.426994
vt 0.398235 0.426994
vt 0.398869 0.428896
vt 0.398235 0.428896
vt 0.398869 0.430799
vt 0.398235 0.430799
vt 0.395065 0.426994
vt 0.396967 0.426994
vt 0.396967 0.428896
vt 0.395065 0.428896
vt 0.400772 0.426994
vt 0.400772 0.428896
vt 0.397601 0.428896
vt 0.397601 0.430799
vt 0.396967 0.430799
vt 0.397601 0.426994
vt 0.396967 0.425092
vt 0.397601 0.425092
vt 0.396967 0.423190
vt 0.397601 0.423190
vt 0.404196 0.423190
vt 0.404830 0.423190
vt 0.404830 0.425092
vt 0.404196 0.425092
vt 0.404830 0.426994
vt 0.404196 0.426994
vt 0.404830 0.428896
vt 0.404196 0.428896
vt 0.404830 0.430799
vt 0.404196 0.430799
vt 0.401026 0.426994
vt 0.402928 0.426994
vt 0.402928 0.428896
vt 0.401026 0.428896
vt 0.406733 0.426994
vt 0.406733 0.428896
vt 0.403562 0.428896
vt 0.403562 0.430799
vt 0.402928 0.430799
vt 0.403562 0.426994
vt 0.402928 0.425092
vt 0.403562 0.425092
vt 0.402928 0.423190
vt 0.403562 0.423190
vt 0.410157 0.423190
vt 0.410791 0.423190
vt 0.410791 0.425092
vt 0.410157 0.425092
vt 0.410791 0.426994
vt 0.410157 0.426994
vt 0.410791 0.428896
vt 0.410157 0.428896
vt 0.410791 0.430799
vt 0.410157 0.430799
vt 0.406987 0.426994
vt 0.408889 0.426994
vt 0.408889 0.428896
vt 0.406987 0.428896
vt 0.412694 0.426994
vt 0.412694 0.428896
vt 0.409523 0.428896
vt 0.409523 0.430799
vt 0.408889 0.430799
vt 0.409523 0.426994
vt 0.408889 0.425092
vt 0.409523 0.425092
vt 0.408889 0.423190
vt 0.409523 0.423190
vt 0.414850 0.423190
vt 0.416752 0.423190
vt 0.416752 0.425092
vt 0.414850 0.425092
vt 0.416752 0.426994
vt 0.414850 0.426994
vt 0.416752 0.428896
vt 0.414850 0.428896
vt 0.416752 0.430799
vt 0.414850 0.430799
vt 0.418655 0.426994
vt 0.418655 0.428896
vt 0.412948 0.426994
vt 0.412948 0.428896
vt 0.420811 0.423190
vt 0.422714 0.423190
vt 0.422714 0.425092
vt 0.420811 0.425092
vt 0.422714 0.426994
vt 0.420811 0.426994
vt 0.422714 0.428896
vt 0.420811 0.428896
vt 0.422714 0.430799
vt 0.420811 0.430799
vt 0.424616 0.426994
vt 0.424616 0.428896
vt 0.418909 0.426994
vt 0.418909 0.428896
vt 0.507780 0.044877
vt 0.507633 0.054041
vt 0.499180 0.055654
vt 0.494732 0.047240
vt 0.498576 0.077118
vt 0.491995 0.075020
vt 0.492945 0.059745
vt 0.495175 0.085217
vt 0.486598 0.078878
vt 0.508497 0.000127
vt 0.477466 0.003610
vt 0.469329 0.131344
vt 0.507097 0.087498
vt 0.506187 0.144285
vt 0.507243 0.078357
vt 0.484651 0.056898
vt 0.449269 0.022363
vt 0.446469 0.109720
vt 0.462936 0.207007
vt 0.455790 0.204045
vt 0.457727 0.198584
vt 0.465155 0.200596
vt 0.458825 0.192901
vt 0.466462 0.193910
vt 0.459223 0.187068
vt 0.467010 0.187100
vt 0.458882 0.181205
vt 0.466660 0.180248
vt 0.457791 0.175414
vt 0.465471 0.173474
vt 0.456036 0.169822
vt 0.463212 0.166975
vt 0.453498 0.164548
vt 0.460377 0.160700
vt 0.450258 0.159573
vt 0.456632 0.154930
vt 0.446469 0.154866
vt 0.452317 0.149843
vt 0.452020 0.223445
vt 0.446469 0.218569
vt 0.450149 0.214098
vt 0.456198 0.218566
vt 0.352303 0.426223
vt 0.357557 0.423190
vt 0.363625 0.423190
vt 0.368879 0.426223
vt 0.371913 0.431478
vt 0.371913 0.437545
vt 0.368879 0.442799
vt 0.363625 0.445833
vt 0.357557 0.445833
vt 0.352303 0.442799
vt 0.349269 0.437545
vt 0.349269 0.431478
vt 0.453273 0.209284
vt 0.459981 0.213076
vt 0.466088 0.216672
vt 0.469586 0.209811
vt 0.461748 0.222989
vt 0.456569 0.228533
vt 0.462519 0.150560
vt 0.457189 0.144539
vt 0.466727 0.157206
vt 0.470052 0.164276
vt 0.472420 0.171689
vt 0.473856 0.179310
vt 0.474300 0.187103
vt 0.473710 0.194922
vt 0.472087 0.202493
vt 0.418909 0.431053
vt 0.420811 0.431053
vt 0.420811 0.431296
vt 0.418909 0.431296
vt 0.420811 0.433199
vt 0.418909 0.433199
vt 0.418909 0.432712
vt 0.420811 0.432712
vt 0.420811 0.435101
vt 0.418909 0.435101
vt 0.418785 0.434739
vt 0.420936 0.434739
vt 0.420936 0.436879
vt 0.418785 0.436879
vt 0.418909 0.436517
vt 0.420811 0.436517
vt 0.417007 0.435101
vt 0.417250 0.434858
vt 0.417250 0.436760
vt 0.417007 0.436517
vt 0.420811 0.438419
vt 0.418909 0.438419
vt 0.422470 0.434858
vt 0.422714 0.435101
vt 0.422714 0.436517
vt 0.422470 0.436760
vt 0.301950 0.466333
vt 0.302373 0.437111
vt 0.307684 0.430822
vt 0.336613 0.430024
vt 0.342656 0.435467
vt 0.342234 0.464689
vt 0.336922 0.470979
vt 0.307994 0.471776
vt 0.349015 0.431289
vt 0.349015 0.467416
vt 0.341233 0.477144
vt 0.305297 0.478611
vt 0.295591 0.470511
vt 0.295591 0.434384
vt 0.303373 0.424656
vt 0.339310 0.423190
vt 0.426772 0.423190
vt 0.428675 0.423190
vt 0.428675 0.425092
vt 0.426772 0.425092
vt 0.428675 0.426994
vt 0.426772 0.426994
vt 0.428675 0.428896
vt 0.426772 0.428896
vt 0.428675 0.430799
vt 0.426772 0.430799
vt 0.424870 0.426994
vt 0.424870 0.428896
vt 0.430577 0.426994
vt 0.430577 0.428896
vt 0.432733 0.423190
vt 0.434636 0.423190
vt 0.434636 0.425092
vt 0.432733 0.425092
vt 0.434636 0.426994
vt 0.432733 0.426994
vt 0.434636 0.428896
vt 0.432733 0.428896
vt 0.434636 0.430799
vt 0.432733 0.430799
vt 0.430831 0.426994
vt 0.430831 0.428896
vt 0.436538 0.426994
vt 0.436538 0.428896
vt 0.311301 0.037311
vt 0.295592 0.001867
vt 0.036555 0.305393
vt 0.021753 0.021935
vt 0.036451 0.021178
vt 0.050921 0.305024
vt 0.048979 0.428857
vt 0.058615 0.428862
vt 0.020669 0.000884
vt 0.035367 0.000127
vt 0.057207 0.020125
vt 0.071699 0.305642
vt 0.313485 0.130728
vt 0.295592 0.130660
vt 0.113189 0.056190
vt 0.114229 0.308503
vt 0.016127 0.308783
vt 0.113200 0.000127
vt 0.113191 0.014767
vt 0.000127 0.023104
vt 0.071953 0.057231
vt 0.074289 0.341437
vt 0.112071 0.494707
vt 0.112072 0.490056
vt 0.112071 0.526928
vt 0.107430 0.490352
vt 0.088139 0.464567
vt 0.319867 0.405066
vt 0.303677 0.411675
vt 0.425886 0.431053
vt 0.422968 0.432955
vt 0.424870 0.432955
vt 0.424870 0.431053
vt 0.422968 0.431053
vt 0.398235 0.431053
vt 0.398235 0.432955
vt 0.398869 0.432955
vt 0.398869 0.431053
vt 0.398235 0.434858
vt 0.398869 0.434858
vt 0.398235 0.436760
vt 0.398869 0.436760
vt 0.398235 0.438662
vt 0.398869 0.438662
vt 0.395065 0.434858
vt 0.395065 0.436760
vt 0.396967 0.436760
vt 0.396967 0.434858
vt 0.400772 0.436760
vt 0.400772 0.434858
vt 0.396967 0.438662
vt 0.397601 0.438662
vt 0.397601 0.436760
vt 0.397601 0.434858
vt 0.396967 0.432955
vt 0.397601 0.432955
vt 0.396967 0.431053
vt 0.397601 0.431053
vt 0.404196 0.431053
vt 0.404196 0.432955
vt 0.404830 0.432955
vt 0.404830 0.431053
vt 0.404196 0.434858
vt 0.404830 0.434858
vt 0.404196 0.436760
vt 0.404830 0.436760
vt 0.404196 0.438662
vt 0.404830 0.438662
vt 0.401026 0.434858
vt 0.401026 0.436760
vt 0.402928 0.436760
vt 0.402928 0.434858
vt 0.406733 0.436760
vt 0.406733 0.434858
vt 0.402928 0.438662
vt 0.403562 0.438662
vt 0.403562 0.436760
vt 0.403562 0.434858
vt 0.402928 0.432955
vt 0.403562 0.432955
vt 0.402928 0.431053
vt 0.403562 0.431053
vt 0.408889 0.431053
vt 0.408889 0.432955
vt 0.410791 0.432955
vt 0.410791 0.431053
vt 0.408889 0.434858
vt 0.410791 0.434858
vt 0.408889 0.436760
vt 0.410791 0.436760
vt 0.408889 0.438662
vt 0.410791 0.438662
vt 0.412694 0.436760
vt 0.412694 0.434858
vt 0.406987 0.434858
vt 0.406987 0.436760
vt 0.520745 0.047657
vt 0.516030 0.055924
vt 0.522131 0.060213
vt 0.522591 0.075511
vt 0.515946 0.077397
vt 0.527862 0.079540
vt 0.519086 0.085600
vt 0.539401 0.004603
vt 0.543441 0.132532
vt 0.530512 0.057633
vt 0.566982 0.024249
vt 0.566982 0.111651
vt 0.457890 0.291411
vt 0.455692 0.284952
vt 0.463198 0.282860
vt 0.465123 0.288425
vt 0.454360 0.278237
vt 0.461977 0.277141
vt 0.453684 0.271403
vt 0.461563 0.271300
vt 0.454162 0.264551
vt 0.461829 0.265444
vt 0.455266 0.257769
vt 0.462918 0.259683
vt 0.457489 0.251261
vt 0.464668 0.254090
vt 0.460308 0.244972
vt 0.467198 0.248809
vt 0.464045 0.239188
vt 0.470433 0.243825
vt 0.468354 0.234088
vt 0.474217 0.239106
vt 0.468826 0.307674
vt 0.464628 0.302922
vt 0.470678 0.298525
vt 0.474217 0.302902
vt 0.375201 0.442800
vt 0.372167 0.437545
vt 0.372167 0.431478
vt 0.375201 0.426223
vt 0.380455 0.423190
vt 0.386523 0.423190
vt 0.391777 0.426223
vt 0.394811 0.431478
vt 0.394811 0.437545
vt 0.391777 0.442800
vt 0.386523 0.445833
vt 0.380455 0.445833
vt 0.460932 0.297441
vt 0.467618 0.293694
vt 0.454886 0.301162
vt 0.451313 0.294319
vt 0.459279 0.307338
vt 0.464432 0.312718
vt 0.458142 0.234825
vt 0.463466 0.228787
vt 0.453941 0.241488
vt 0.450625 0.248576
vt 0.448267 0.256022
vt 0.446855 0.263702
vt 0.446468 0.271504
vt 0.447064 0.279298
vt 0.448696 0.286977
vt 0.425124 0.432955
vt 0.425124 0.431053
s 0
f 5/1/1 2/2/1 23/3/1 24/4/1
f 10/5/2 9/6/2 3/7/2 4/8/2
f 5/9/3 8/10/3 1/11/3 2/12/3
f 4/8/4 3/7/4 14/13/4 11/14/4
f 9/6/5 12/15/5 14/16/5 3/7/5
f 1/11/6 12/15/6 9/6/6
f 2/12/7 1/11/7 9/6/7 10/5/7
f 2/2/8 13/17/8 27/18/8 23/3/8
f 15/19/5 18/20/5 17/21/5 16/22/5
f 13/23/9 2/12/9 10/5/9
f 11/24/4 14/25/4 6/26/4 7/27/4
f 6/26/10 14/25/10 15/19/10 16/22/10
f 11/28/11 13/23/11 10/5/11 4/8/11
f 14/29/2 12/30/2 18/20/2 15/19/2
f 19/31/12 22/32/12 21/33/12 20/34/12
f 1/35/13 8/36/13 20/34/13 21/33/13
f 18/20/14 22/32/14 19/31/14 17/21/14
f 12/30/2 1/37/2 21/38/2 22/32/2 18/20/2
f 25/39/11 27/18/11 28/40/11 26/41/11
f 24/4/15 23/3/15 27/18/15 25/39/15
f 11/42/16 7/43/16 26/41/16 28/40/16
f 13/17/17 11/42/17 28/40/17 27/18/17
f 35/44/18 43/44/18 44/44/18 36/44/18
f 33/44/19 41/44/19 42/44/19 34/44/19
f 31/44/20 39/44/20 40/44/20 32/44/20
f 29/44/21 37/44/21 38/44/21 30/44/21
f 36/44/22 44/44/22 37/44/22 29/44/22
f 34/44/23 42/44/23 43/44/23 35/44/23
f 32/44/24 40/44/24 41/44/24 33/44/24
f 30/44/25 38/44/25 39/44/25 31/44/25
f 51/44/26 52/44/26 60/44/26 59/44/26
f 49/44/27 50/44/27 58/44/27 57/44/27
f 47/44/28 48/44/28 56/44/28 55/44/28
f 46/44/29 45/44/29 53/44/29 54/44/29
f 52/44/30 46/44/30 54/44/30 60/44/30
f 50/44/31 51/44/31 59/44/31 58/44/31
f 48/44/32 49/44/32 57/44/32 56/44/32
f 45/44/33 47/44/33 55/44/33 53/44/33
f 30/44/4 31/44/4 47/44/4 45/44/4
f 39/44/3 38/44/3 53/44/3 55/44/3
f 31/44/4 32/44/4 48/44/4 47/44/4
f 40/44/3 39/44/3 55/44/3 56/44/3
f 32/44/4 33/44/4 49/44/4 48/44/4
f 41/44/3 40/44/3 56/44/3 57/44/3
f 33/44/4 34/44/4 50/44/4 49/44/4
f 42/44/3 41/44/3 57/44/3 58/44/3
f 34/44/4 35/44/4 51/44/4 50/44/4
f 43/44/3 42/44/3 58/44/3 59/44/3
f 35/44/4 36/44/4 52/44/4 51/44/4
f 44/44/3 43/44/3 59/44/3 60/44/3
f 36/44/4 29/44/4 46/44/4 52/44/4
f 29/44/4 30/44/4 45/44/4 46/44/4
f 37/44/3 44/44/3 60/44/3 54/44/3
f 38/44/3 37/44/3 54/44/3 53/44/3
f 64/45/24 281/45/24 68/45/24 65/45/24
f 62/45/25 282/45/25 67/45/25 63/45/25
f 65/45/19 68/45/19 69/45/19 278/45/19
f 63/45/20 67/45/20 281/45/20 64/45/20
f 61/45/21 66/45/21 282/45/21 62/45/21
f 278/45/23 69/45/23 280/45/23 277/45/23
f 71/45/32 72/45/32 75/45/32 287/45/32
f 284/45/26 283/45/26 78/45/26 77/45/26
f 72/45/27 73/45/27 76/45/27 75/45/27
f 285/45/28 71/45/28 287/45/28 288/45/28
f 283/45/30 70/45/30 74/45/30 78/45/30
f 73/45/31 284/45/31 77/45/31 76/45/31
f 67/45/3 282/45/3 289/45/3 288/45/3
f 63/45/4 64/45/4 71/45/4 285/45/4
f 281/45/3 67/45/3 288/45/3 287/45/3
f 64/45/4 65/45/4 72/45/4 71/45/4
f 65/45/4 278/45/4 73/45/4 72/45/4
f 69/45/3 68/45/3 75/45/3 76/45/3
f 278/45/4 277/45/4 284/45/4 73/45/4
f 280/45/3 69/45/3 76/45/3 77/45/3
f 279/45/3 280/45/3 77/45/3 78/45/3
f 61/45/4 62/45/4 286/45/4 70/45/4
f 66/45/3 279/45/3 78/45/3 74/45/3
f 62/45/4 63/45/4 285/45/4 286/45/4
f 83/46/34 79/47/34 80/48/34 297/49/34
f 297/49/3 80/48/3 81/50/3 296/51/3
f 296/51/35 81/50/35 291/52/35 295/53/35
f 295/53/4 291/52/4 79/54/4 83/55/4
f 81/50/5 80/56/5 79/57/5 291/52/5
f 290/58/4 86/59/4 82/60/4 293/61/4
f 86/59/4 295/53/4 83/55/4 82/60/4
f 292/62/36 85/63/36 86/59/36 290/58/36
f 85/63/2 296/51/2 295/53/2 86/59/2
f 294/64/3 84/65/3 85/63/3 292/62/3
f 84/65/3 297/49/3 296/51/3 85/63/3
f 293/66/37 82/67/37 84/65/37 294/64/37
f 82/67/38 83/46/38 297/49/38 84/65/38
f 92/68/39 88/69/39 298/70/39 93/71/39
f 93/71/3 298/70/3 300/72/3 302/73/3
f 302/73/40 300/72/40 90/74/40 304/75/40
f 304/75/4 90/74/4 88/76/4 92/77/4
f 299/78/38 301/79/38 89/80/38 87/81/38
f 300/72/41 298/82/41 88/83/41 90/74/41
f 89/80/4 303/84/4 91/85/4 87/86/4
f 303/84/4 304/75/4 92/77/4 91/85/4
f 301/79/42 95/87/42 303/84/42 89/80/42
f 95/87/11 302/73/11 304/75/11 303/84/11
f 299/88/3 94/89/3 95/87/3 301/79/3
f 94/89/3 93/71/3 302/73/3 95/87/3
f 87/90/43 91/91/43 94/89/43 299/88/43
f 91/91/5 92/68/5 93/71/5 94/89/5
f 105/92/44 97/93/44 99/94/44 106/95/44
f 106/95/3 99/94/3 103/96/3 108/97/3
f 108/97/45 103/96/45 101/98/45 110/99/45
f 110/99/4 101/98/4 97/100/4 105/101/4
f 98/102/11 102/103/11 100/104/11 96/105/11
f 103/96/5 99/106/5 97/107/5 101/98/5
f 100/104/4 111/108/4 104/109/4 96/110/4
f 111/108/4 110/99/4 105/101/4 104/109/4
f 102/103/46 109/111/46 111/108/46 100/104/46
f 109/111/2 108/97/2 110/99/2 111/108/2
f 98/112/3 107/113/3 109/111/3 102/103/3
f 107/113/3 106/95/3 108/97/3 109/111/3
f 96/114/37 104/115/37 107/113/37 98/112/37
f 104/115/47 105/92/47 106/95/47 107/113/47
f 121/116/39 113/117/39 115/118/39 122/119/39
f 122/119/3 115/118/3 119/120/3 124/121/3
f 124/121/40 119/120/40 117/122/40 126/123/40
f 126/123/4 117/122/4 113/124/4 121/125/4
f 114/126/47 118/127/47 116/128/47 112/129/47
f 119/120/2 115/130/2 113/131/2 117/122/2
f 116/128/4 127/132/4 120/133/4 112/134/4
f 127/132/4 126/123/4 121/125/4 120/133/4
f 118/127/42 125/135/42 127/132/42 116/128/42
f 125/135/11 124/121/11 126/123/11 127/132/11
f 114/136/3 123/137/3 125/135/3 118/127/3
f 123/137/3 122/119/3 124/121/3 125/135/3
f 112/138/43 120/139/43 123/137/43 114/136/43
f 120/139/5 121/116/5 122/119/5 123/137/5
f 128/140/47 129/141/47 131/142/47 130/143/47
f 130/143/3 131/142/3 135/144/3 134/145/3
f 134/145/2 135/144/2 133/146/2 132/147/2
f 132/147/4 133/146/4 129/148/4 128/149/4
f 134/145/48 132/147/48 138/147/48 139/145/48
f 135/144/5 131/150/5 129/151/5 133/146/5
f 137/152/11 139/145/11 138/147/11 136/153/11
f 132/147/49 128/149/49 136/149/49 138/147/49
f 130/143/50 134/145/50 139/145/50 137/143/50
f 128/140/51 130/143/51 137/143/51 136/140/51
f 351/154/47 140/155/47 352/156/47 141/157/47
f 141/157/3 352/156/3 350/158/3 349/159/3
f 349/159/2 350/158/2 143/160/2 142/161/2
f 142/161/4 143/160/4 140/162/4 351/163/4
f 349/159/48 142/161/48 353/161/48 145/159/48
f 350/158/5 352/164/5 140/165/5 143/160/5
f 144/166/11 145/159/11 353/161/11 354/167/11
f 142/161/49 351/163/49 354/163/49 353/161/49
f 141/157/50 349/159/50 145/159/50 144/157/50
f 351/154/51 141/157/51 144/157/51 354/154/51
f 157/168/52 153/169/52 149/170/52 150/171/52
f 149/170/5 147/172/5 162/173/5 161/174/5
f 147/172/4 151/175/4 163/176/4 162/173/4
f 152/177/53 157/168/53 150/171/53 148/178/53
f 146/179/4 151/175/4 156/180/4 154/181/4
f 149/170/5 153/169/5 155/182/5 147/172/5
f 151/175/4 147/172/4 155/182/4 156/180/4
f 158/183/2 161/174/2 162/173/2 163/176/2
f 159/184/2 158/183/2 163/176/2 160/185/2
f 148/178/54 150/171/54 158/183/54 159/184/54
f 150/171/55 149/170/55 161/174/55 158/183/55
f 151/175/4 146/179/4 160/185/4 163/176/4
f 188/186/56 165/187/56 167/188/56 189/189/56
f 189/189/57 167/188/57 169/190/57 190/191/57
f 190/191/58 169/190/58 171/192/58 191/193/58
f 191/193/59 171/192/59 173/194/59 192/195/59
f 192/195/60 173/194/60 175/196/60 193/197/60
f 193/197/61 175/196/61 177/198/61 194/199/61
f 194/199/62 177/198/62 179/200/62 195/201/62
f 195/201/63 179/200/63 181/202/63 196/203/63
f 196/203/64 181/202/64 183/204/64 197/205/64
f 197/206/65 183/207/65 185/208/65 198/209/65
f 167/210/5 165/211/5 187/212/5 185/213/5 183/214/5 181/215/5 179/216/5 177/217/5 175/218/5 173/219/5 171/220/5 169/221/5
f 198/209/66 185/208/66 187/222/66 199/223/66
f 199/223/67 187/222/67 165/187/67 188/186/67
f 186/224/68 199/223/68 188/186/68 164/225/68
f 184/226/69 198/209/69 199/223/69 186/224/69
f 182/227/70 197/206/70 198/209/70 184/226/70
f 180/228/71 196/203/71 197/205/71 182/229/71
f 178/230/72 195/201/72 196/203/72 180/228/72
f 176/231/73 194/199/73 195/201/73 178/230/73
f 174/232/74 193/197/74 194/199/74 176/231/74
f 172/233/75 192/195/75 193/197/75 174/232/75
f 170/234/76 191/193/76 192/195/76 172/233/76
f 168/235/77 190/191/77 191/193/77 170/234/77
f 166/236/78 189/189/78 190/191/78 168/235/78
f 164/225/79 188/186/79 189/189/79 166/236/79
f 200/237/80 408/238/80 409/239/80 201/240/80
f 203/241/81 410/242/81 202/243/81 204/244/81
f 207/245/82 206/246/82 406/247/82 407/248/82
f 205/249/83 403/250/83 404/251/83 405/252/83
f 202/253/11 410/254/11 406/247/11 206/246/11 404/251/11 403/250/11 200/255/11 201/256/11
f 201/240/84 409/239/84 204/244/84 202/243/84
f 403/250/85 205/249/85 408/257/85 200/258/85
f 207/245/5 407/248/5 203/259/5 204/260/5 409/261/5 408/262/5 205/249/5 405/252/5
f 410/242/86 203/241/86 407/248/86 406/247/86
f 206/246/87 207/245/87 405/252/87 404/251/87
f 212/263/11 215/264/11 214/265/11 216/266/11 217/267/11 213/268/11 414/269/11 211/270/11
f 213/268/2 217/267/2 413/271/2 412/272/2
f 211/270/4 414/269/4 411/273/4 208/274/4
f 215/264/47 212/263/47 209/275/47 210/276/47
f 214/265/88 215/264/88 210/276/88 219/277/88
f 217/267/89 216/266/89 218/278/89 413/271/89
f 414/269/90 213/268/90 412/272/90 411/273/90
f 212/263/91 211/270/91 208/274/91 209/275/91
f 216/266/3 214/265/3 219/277/3 218/278/3
f 220/279/47 417/280/47 419/281/47 418/282/47
f 418/282/3 419/281/3 222/283/3 221/284/3
f 221/284/2 222/283/2 416/285/2 415/286/2
f 415/286/4 416/285/4 417/287/4 220/288/4
f 418/289/11 221/284/11 415/286/11 220/290/11
f 416/285/92 222/283/92 420/283/92 223/285/92
f 420/283/5 421/291/5 422/292/5 223/285/5
f 417/287/93 416/285/93 223/285/93 422/287/93
f 222/283/94 419/281/94 421/281/94 420/283/94
f 426/293/47 224/294/47 427/295/47 225/296/47
f 225/296/3 427/295/3 425/297/3 226/298/3
f 226/298/2 425/297/2 424/299/2 423/300/2
f 423/300/4 424/299/4 224/301/4 426/302/4
f 225/303/11 226/298/11 423/300/11 426/304/11
f 425/297/5 427/305/5 224/306/5 424/299/5
f 5/1/1 24/4/1 241/307/1 228/308/1
f 232/309/47 230/310/47 229/311/47 231/312/47
f 5/9/3 228/313/3 227/314/3 8/10/3
f 230/310/4 233/315/4 236/316/4 229/311/4
f 231/312/5 229/311/5 236/317/5 234/318/5
f 227/314/6 231/312/6 234/318/6
f 228/313/95 232/309/95 231/312/95 227/314/95
f 228/308/96 241/307/96 242/319/96 235/320/96
f 237/321/5 16/22/5 17/21/5 238/322/5
f 235/323/9 232/309/9 228/313/9
f 233/324/4 7/27/4 6/26/4 236/325/4
f 6/26/10 16/22/10 237/321/10 236/325/10
f 233/326/11 230/310/11 232/309/11 235/323/11
f 236/327/47 237/321/47 238/322/47 234/328/47
f 19/31/12 20/34/12 239/329/12 240/330/12
f 227/331/13 239/329/13 20/34/13 8/36/13
f 238/322/14 17/21/14 19/31/14 240/330/14
f 234/328/47 238/322/47 240/330/47 239/332/47 227/333/47
f 25/39/11 26/41/11 243/334/11 242/319/11
f 24/4/15 25/39/15 242/319/15 241/307/15
f 233/335/16 243/334/16 26/41/16 7/43/16
f 235/320/97 242/319/97 243/334/97 233/335/97
f 250/336/25 251/336/25 259/336/25 258/336/25
f 248/336/24 249/336/24 257/336/24 256/336/24
f 246/336/23 247/336/23 255/336/23 254/336/23
f 244/336/22 245/336/22 253/336/22 252/336/22
f 251/336/21 244/336/21 252/336/21 259/336/21
f 249/336/20 250/336/20 258/336/20 257/336/20
f 247/336/19 248/336/19 256/336/19 255/336/19
f 245/336/18 246/336/18 254/336/18 253/336/18
f 266/336/33 274/336/33 275/336/33 267/336/33
f 264/336/32 272/336/32 273/336/32 265/336/32
f 262/336/31 270/336/31 271/336/31 263/336/31
f 261/336/30 269/336/30 268/336/30 260/336/30
f 267/336/29 275/336/29 269/336/29 261/336/29
f 265/336/28 273/336/28 274/336/28 266/336/28
f 263/336/27 271/336/27 272/336/27 264/336/27
f 260/336/26 268/336/26 270/336/26 262/336/26
f 245/336/4 260/336/4 262/336/4 246/336/4
f 254/336/3 270/336/3 268/336/3 253/336/3
f 246/336/4 262/336/4 263/336/4 247/336/4
f 255/336/3 271/336/3 270/336/3 254/336/3
f 247/336/4 263/336/4 264/336/4 248/336/4
f 256/336/3 272/336/3 271/336/3 255/336/3
f 248/336/4 264/336/4 265/336/4 249/336/4
f 257/336/3 273/336/3 272/336/3 256/336/3
f 249/336/4 265/336/4 266/336/4 250/336/4
f 258/336/3 274/336/3 273/336/3 257/336/3
f 250/336/4 266/336/4 267/336/4 251/336/4
f 259/336/3 275/336/3 274/336/3 258/336/3
f 251/336/4 267/336/4 261/336/4 244/336/4
f 244/336/4 261/336/4 260/336/4 245/336/4
f 252/336/3 269/336/3 275/336/3 259/336/3
f 253/336/3 268/336/3 269/336/3 252/336/3
f 276/45/18 277/45/18 280/45/18 279/45/18
f 61/45/22 276/45/22 279/45/22 66/45/22
f 285/45/33 288/45/33 289/45/33 286/45/33
f 286/45/29 289/45/29 74/45/29 70/45/29
f 281/45/3 287/45/3 75/45/3 68/45/3
f 61/45/4 70/45/4 283/45/4 276/45/4
f 66/45/3 74/45/3 289/45/3 282/45/3
f 276/45/4 283/45/4 284/45/4 277/45/4
f 292/337/11 290/338/11 293/339/11 294/340/11
f 314/341/45 315/342/45 308/343/45 306/344/45
f 315/342/3 317/345/3 312/346/3 308/343/3
f 317/345/44 319/347/44 310/348/44 312/346/44
f 319/347/4 314/349/4 306/350/4 310/348/4
f 307/351/11 305/352/11 309/353/11 311/354/11
f 312/346/5 310/348/5 306/355/5 308/356/5
f 309/353/4 305/357/4 313/358/4 320/359/4
f 320/359/4 313/358/4 314/349/4 319/347/4
f 311/354/37 309/353/37 320/359/37 318/360/37
f 318/360/47 320/359/47 319/347/47 317/345/47
f 307/361/3 311/354/3 318/360/3 316/362/3
f 316/362/3 318/360/3 317/345/3 315/342/3
f 305/363/46 307/361/46 316/362/46 313/364/46
f 313/364/2 316/362/2 315/342/2 314/341/2
f 330/365/43 331/366/43 324/367/43 322/368/43
f 331/366/3 333/369/3 328/370/3 324/367/3
f 333/369/42 335/371/42 326/372/42 328/370/42
f 335/371/4 330/373/4 322/374/4 326/372/4
f 323/375/2 321/376/2 325/377/2 327/378/2
f 328/370/47 326/372/47 322/379/47 324/380/47
f 325/377/4 321/381/4 329/382/4 336/383/4
f 336/383/4 329/382/4 330/373/4 335/371/4
f 327/378/40 325/377/40 336/383/40 334/384/40
f 334/384/11 336/383/11 335/371/11 333/369/11
f 323/385/3 327/378/3 334/384/3 332/386/3
f 332/386/3 334/384/3 333/369/3 331/366/3
f 321/387/39 323/385/39 332/386/39 329/388/39
f 329/388/5 332/386/5 331/366/5 330/365/5
f 337/389/2 339/390/2 340/391/2 338/392/2
f 339/390/3 343/393/3 344/394/3 340/391/3
f 343/393/47 341/395/47 342/396/47 344/394/47
f 341/395/4 337/397/4 338/398/4 342/396/4
f 343/393/51 348/393/51 347/395/51 341/395/51
f 344/394/5 342/396/5 338/399/5 340/400/5
f 346/401/11 345/402/11 347/395/11 348/393/11
f 341/395/49 347/395/49 345/397/49 337/397/49
f 339/390/50 346/390/50 348/393/50 343/393/50
f 337/389/48 345/389/48 346/390/48 339/390/48
f 157/168/52 359/403/52 358/404/52 153/169/52
f 358/404/5 364/405/5 365/406/5 356/407/5
f 356/407/4 365/406/4 366/408/4 360/409/4
f 152/177/53 357/410/53 359/403/53 157/168/53
f 355/411/4 154/181/4 156/180/4 360/409/4
f 358/404/5 356/407/5 155/182/5 153/169/5
f 360/409/4 156/180/4 155/182/4 356/407/4
f 361/412/47 366/408/47 365/406/47 364/405/47
f 362/413/47 363/414/47 366/408/47 361/412/47
f 357/410/98 362/413/98 361/412/98 359/403/98
f 359/403/99 361/412/99 364/405/99 358/404/99
f 360/409/4 366/408/4 363/414/4 355/411/4
f 391/415/67 392/416/67 370/417/67 368/418/67
f 392/416/66 393/419/66 372/420/66 370/417/66
f 393/419/65 394/421/65 374/422/65 372/420/65
f 394/421/64 395/423/64 376/424/64 374/422/64
f 395/423/63 396/425/63 378/426/63 376/424/63
f 396/425/62 397/427/62 380/428/62 378/426/62
f 397/427/61 398/429/61 382/430/61 380/428/61
f 398/429/60 399/431/60 384/432/60 382/430/60
f 399/431/59 400/433/59 386/434/59 384/432/59
f 400/435/58 401/436/58 388/437/58 386/438/58
f 370/439/5 372/440/5 374/441/5 376/442/5 378/443/5 380/444/5 382/445/5 384/446/5 386/447/5 388/448/5 390/449/5 368/450/5
f 401/436/57 402/451/57 390/452/57 388/437/57
f 402/451/56 391/415/56 368/418/56 390/452/56
f 389/453/79 367/454/79 391/415/79 402/451/79
f 387/455/78 389/453/78 402/451/78 401/436/78
f 385/456/77 387/455/77 401/436/77 400/435/77
f 383/457/76 385/458/76 400/433/76 399/431/76
f 381/459/75 383/457/75 399/431/75 398/429/75
f 379/460/74 381/459/74 398/429/74 397/427/74
f 377/461/73 379/460/73 397/427/73 396/425/73
f 375/462/72 377/461/72 396/425/72 395/423/72
f 373/463/71 375/462/71 395/423/71 394/421/71
f 371/464/70 373/463/70 394/421/70 393/419/70
f 369/465/69 371/464/69 393/419/69 392/416/69
f 367/454/68 369/465/68 392/416/68 391/415/68
f 417/466/100 422/466/100 421/467/100 419/467/100
