# Blender 5.1.1
# www.blender.org
mtllib wp_zubr.mtl
o hull
v -0.096356 0.040586 0.325008
v -0.096356 0.027613 0.325008
v -0.125000 0.030047 -0.236932
v -0.125000 0.010047 -0.236932
v 0.000000 0.027613 0.325008
v 0.000000 0.030047 -0.236932
v 0.000000 0.010047 -0.236932
v 0.000000 0.040586 0.325008
v -0.125000 0.030047 0.157092
v -0.125000 0.010047 0.157092
v -0.096356 0.010047 -0.236932
v -0.096356 0.030047 0.157092
v -0.096356 0.010047 0.157092
v -0.096356 0.030047 -0.236932
v -0.096356 0.086619 -0.237996
v 0.000000 0.086619 -0.237996
v 0.000000 0.086619 0.113230
v -0.096356 0.086619 0.113230
v 0.000000 0.071133 0.361068
v 0.000000 0.064846 0.361148
v -0.096356 0.064846 0.361148
v -0.096356 0.071133 0.361068
v -0.077650 0.013993 0.279895
v 0.000000 0.013993 0.279895
v 0.000000 -0.003573 0.157424
v 0.000000 -0.003573 -0.236601
v -0.077649 -0.003573 0.157424
v -0.077649 -0.003573 -0.236601
v 0.096356 0.040586 0.325008
v 0.096356 0.027613 0.325008
v 0.125000 0.030047 -0.236932
v 0.125000 0.010047 -0.236932
v 0.125000 0.030047 0.157092
v 0.125000 0.010047 0.157092
v 0.096356 0.010047 -0.236932
v 0.096356 0.030047 0.157092
v 0.096356 0.010047 0.157092
v 0.096356 0.030047 -0.236932
v 0.096356 0.086619 -0.237996
v 0.096356 0.086619 0.113230
v 0.096356 0.064846 0.361148
v 0.096356 0.071133 0.361068
v 0.077650 0.013993 0.279895
v 0.077649 -0.003573 0.157424
v 0.077649 -0.003573 -0.236601
vn -0.0000 -0.9573 0.2890
vn -1.0000 -0.0000 -0.0000
vn -0.0000 -0.0000 1.0000
vn -0.0000 -0.0000 -1.0000
vn -0.0000 1.0000 -0.0000
vn -0.0000 0.9980 -0.0626
vn -0.9858 -0.0000 0.1682
vn -0.4278 -0.8990 0.0940
vn -0.0000 -0.9946 0.1040
vn -0.0000 -0.0188 -0.9998
vn -0.0000 -1.0000 -0.0000
vn -0.0000 0.0126 0.9999
vn -0.0000 -0.8303 0.5574
vn -0.0000 0.9981 0.0624
vn -0.0000 -0.9899 0.1420
vn -0.0000 -0.0244 -0.9997
vn -0.5886 -0.8084 -0.0000
vn 1.0000 -0.0000 -0.0000
vn 0.9858 -0.0000 0.1682
vn 0.4278 -0.8990 0.0940
vn 0.5886 -0.8084 -0.0000
vn -0.5860 -0.8021 0.1150
vn 0.5860 -0.8021 0.1150
vt 0.689316 0.707136
vt 0.591414 0.644976
vt 0.689799 0.646576
vt 0.433490 0.327923
vt 0.409171 0.802852
vt 0.409456 0.328566
vt 0.428859 0.000329
vt 0.419183 0.120928
vt 0.412738 0.001197
vt 0.433765 0.838077
vt 0.409171 0.838077
vt 0.468155 0.325068
vt 0.433766 0.802852
vt 0.435304 0.120060
vt 0.565153 0.488925
vt 0.565153 0.704228
vt 0.301932 0.516404
vt 0.187048 0.094001
vt 0.304826 0.094407
vt 0.374889 0.324769
vt 0.305035 0.025161
vt 0.187189 0.000400
vt 0.305094 0.000688
vt 0.187152 0.024871
vt 0.374418 0.802818
vt 0.373760 0.096342
vt 0.305817 0.818925
vt 0.186538 0.827111
vt 0.186523 0.819333
vt 0.186633 0.880980
vt 0.305843 0.826711
vt 0.306000 0.880633
vt 0.186504 0.516516
vt 0.345640 0.776441
vt 0.595066 0.488810
vt 0.694813 0.018844
vt 0.691045 0.490587
vt 0.694961 0.000329
vt 0.605734 0.030201
vt 0.578669 0.019153
vt 0.788198 0.646548
vt 0.813509 0.706212
vt 0.505279 0.035489
vt 0.529588 0.509557
vt 0.505626 0.508941
vt 0.515733 0.715671
vt 0.525581 0.835718
vt 0.509530 0.834882
vt 0.529829 0.000329
vt 0.529829 0.035489
vt 0.564147 0.512369
vt 0.531784 0.716506
vt 0.816948 0.490937
vt 0.071002 0.515840
vt 0.069264 0.094050
vt 0.471306 0.512835
vt 0.069267 0.024803
vt 0.069281 0.000329
vt 0.469155 0.035581
vt 0.000329 0.095790
vt 0.004235 0.570896
vt 0.067396 0.819341
vt 0.067395 0.827116
vt 0.067395 0.880980
vt 0.059636 0.819837
vt 0.027388 0.776732
vt 0.787041 0.490344
vt 0.783700 0.031623
vt 0.810938 0.021008
vt 0.468497 0.802827
vt 0.368557 0.571399
vt 0.313549 0.819412
vt 0.505279 0.000329
vt 0.564495 0.035514
s 0
f 5/1/1 23/2/1 24/3/1
f 9/4/2 4/5/2 10/6/2
f 8/7/3 2/8/3 5/9/3
f 4/5/4 14/10/4 11/11/4
f 12/12/5 3/13/5 9/4/5
f 1/14/6 12/12/6 9/4/6
f 2/8/7 9/4/7 10/6/7
f 13/15/8 23/2/8 2/16/8
f 18/17/5 16/18/5 15/19/5
f 13/20/9 2/8/9 10/6/9
f 14/21/4 7/22/4 11/23/4
f 14/21/10 16/18/10 6/24/10
f 13/20/11 4/5/11 11/25/11
f 14/26/2 18/17/2 15/19/2
f 22/27/12 20/28/12 19/29/12
f 8/30/13 21/31/13 1/32/13
f 22/27/14 17/33/14 18/17/14
f 1/34/2 22/27/2 18/17/2
f 27/35/11 26/36/11 25/37/11
f 23/2/15 25/37/15 24/3/15
f 7/38/16 28/39/16 11/40/16
f 13/15/17 28/39/17 27/35/17
f 5/1/1 43/41/1 30/42/1
f 32/43/18 33/44/18 34/45/18
f 30/46/3 8/47/3 5/48/3
f 32/43/4 38/49/4 31/50/4
f 31/50/5 36/51/5 33/44/5
f 29/52/6 33/44/6 36/51/6
f 30/46/19 33/44/19 29/52/19
f 43/41/20 37/53/20 30/42/20
f 16/18/5 40/54/5 39/55/5
f 37/56/9 34/45/9 30/46/9
f 7/22/4 38/57/4 35/58/4
f 16/18/10 38/57/10 6/24/10
f 35/59/11 34/45/11 37/56/11
f 38/60/18 40/54/18 36/61/18
f 20/28/12 42/62/12 19/29/12
f 41/63/13 8/30/13 29/64/13
f 17/33/14 42/62/14 40/54/14
f 40/54/18 41/65/18 29/66/18
f 26/36/11 44/67/11 25/37/11
f 25/37/15 43/41/15 24/3/15
f 45/68/16 7/38/16 35/69/16
f 37/53/21 45/68/21 35/69/21
f 5/1/1 2/16/1 23/2/1
f 9/4/2 3/13/2 4/5/2
f 8/7/3 1/14/3 2/8/3
f 4/5/4 3/13/4 14/10/4
f 12/12/5 14/70/5 3/13/5
f 2/8/7 1/14/7 9/4/7
f 13/15/22 27/35/22 23/2/22
f 18/17/5 17/33/5 16/18/5
f 14/21/4 6/24/4 7/22/4
f 14/21/10 15/19/10 16/18/10
f 13/20/11 10/6/11 4/5/11
f 14/26/2 12/71/2 18/17/2
f 22/27/12 21/31/12 20/28/12
f 8/30/13 20/28/13 21/31/13
f 22/27/14 19/29/14 17/33/14
f 18/17/2 12/71/2 1/34/2
f 1/34/2 21/72/2 22/27/2
f 27/35/11 28/39/11 26/36/11
f 23/2/15 27/35/15 25/37/15
f 7/38/16 26/36/16 28/39/16
f 13/15/17 11/40/17 28/39/17
f 5/1/1 24/3/1 43/41/1
f 32/43/18 31/50/18 33/44/18
f 30/46/3 29/52/3 8/47/3
f 32/43/4 35/73/4 38/49/4
f 31/50/5 38/74/5 36/51/5
f 30/46/19 34/45/19 33/44/19
f 43/41/23 44/67/23 37/53/23
f 16/18/5 17/33/5 40/54/5
f 7/22/4 6/24/4 38/57/4
f 16/18/10 39/55/10 38/57/10
f 35/59/11 32/43/11 34/45/11
f 38/60/18 39/55/18 40/54/18
f 20/28/12 41/63/12 42/62/12
f 41/63/13 20/28/13 8/30/13
f 17/33/14 19/29/14 42/62/14
f 29/66/18 36/61/18 40/54/18
f 40/54/18 42/62/18 41/65/18
f 26/36/11 45/68/11 44/67/11
f 25/37/15 44/67/15 43/41/15
f 45/68/16 26/36/16 7/38/16
f 37/53/21 44/67/21 45/68/21
o superstructure
v -0.024742 0.076011 0.019239
v -0.024742 0.145236 0.019239
v -0.024742 0.076011 0.095826
v -0.024742 0.145236 0.091814
v -0.024742 0.125711 0.088463
v -0.024742 0.125711 0.019239
v 0.000000 0.076011 0.095826
v 0.000000 0.145236 0.091814
v 0.000000 0.076011 0.019239
v 0.000000 0.145236 0.019239
v 0.000000 0.125711 0.019239
v 0.000000 0.125711 0.088463
v -0.046310 0.125711 0.075668
v -0.046310 0.076011 0.083031
v -0.046310 0.076011 0.019239
v -0.046310 0.145236 0.079020
v -0.046310 0.145236 0.019239
v -0.046310 0.125711 0.019239
v 0.024742 0.076011 0.019239
v 0.024742 0.145236 0.019239
v 0.024742 0.076011 0.095826
v 0.024742 0.145236 0.091814
v 0.024742 0.125711 0.088463
v 0.024742 0.125711 0.019239
v 0.046310 0.125711 0.075668
v 0.046310 0.076011 0.083031
v 0.046310 0.076011 0.019239
v 0.046310 0.145236 0.079020
v 0.046310 0.145236 0.019239
v 0.046310 0.125711 0.019239
v 0.022626 0.083026 -0.027994
v 0.030403 0.083026 -0.020217
v 0.022993 0.187921 -0.014702
v 0.017112 0.187921 -0.020583
v 0.030403 0.083026 0.025036
v 0.022626 0.083026 0.032813
v 0.017112 0.187921 0.025402
v 0.022993 0.187921 0.019521
v -0.030403 0.083026 -0.020217
v -0.022626 0.083026 -0.027994
v -0.017112 0.187921 -0.020583
v -0.022993 0.187921 -0.014702
v -0.022626 0.083026 0.032813
v -0.030403 0.083026 0.025036
v -0.022993 0.187921 0.019521
v -0.017112 0.187921 0.025402
v -0.021453 0.196191 -0.027386
v 0.021453 0.196191 -0.027386
v 0.029795 0.196191 -0.019044
v 0.029795 0.196191 0.023862
v 0.021453 0.188088 -0.027386
v 0.029795 0.188088 -0.019044
v -0.029795 0.188088 -0.019044
v -0.021453 0.188088 -0.027386
v 0.021453 0.188088 0.032205
v 0.029795 0.188088 0.023862
v -0.021453 0.188088 0.032205
v -0.029795 0.188088 0.023862
v -0.029795 0.196191 -0.019044
v -0.029795 0.196191 0.023862
v -0.021453 0.196191 0.032205
v 0.021453 0.196191 0.032205
v -0.021070 0.196191 -0.026462
v 0.021070 0.196191 -0.026462
v 0.028872 0.196191 -0.018661
v 0.028872 0.196191 0.023480
v 0.021156 0.188718 -0.026669
v 0.029078 0.188718 -0.018746
v -0.029078 0.188718 -0.018746
v -0.021156 0.188718 -0.026669
v 0.021156 0.188718 0.031488
v 0.029078 0.188718 0.023565
v -0.021156 0.188718 0.031488
v -0.029078 0.188718 0.023565
v -0.028872 0.196191 -0.018661
v -0.028872 0.196191 0.023480
v -0.021070 0.196191 0.031281
v 0.021070 0.196191 0.031281
v 0.001009 0.188063 -0.020453
v 0.001009 0.193143 -0.020453
v 0.001009 0.188063 -0.018434
v 0.001009 0.193143 -0.018434
v -0.001009 0.188063 -0.020453
v -0.001009 0.193143 -0.020453
v -0.001009 0.188063 -0.018434
v -0.001009 0.193143 -0.018434
v 0.000530 0.281660 -0.019974
v 0.000530 0.281660 -0.018913
v -0.000530 0.281660 -0.018913
v -0.000530 0.281660 -0.019974
v 0.017267 0.254875 -0.022447
v 0.017267 0.258131 -0.022447
v 0.017267 0.254875 -0.019192
v 0.017267 0.258131 -0.019192
v -0.017267 0.254875 -0.022447
v -0.017267 0.258131 -0.022447
v -0.017267 0.254875 -0.019192
v -0.017267 0.258131 -0.019192
v -0.001458 0.233857 -0.018843
v -0.001458 0.237019 -0.019621
v 0.001798 0.233857 -0.018843
v 0.001798 0.237019 -0.019621
v -0.001458 0.242107 0.014692
v -0.001458 0.245268 0.013914
v 0.001798 0.242107 0.014692
v 0.001798 0.245268 0.013914
vn -0.0000 -0.1692 0.9856
vn -0.0000 1.0000 -0.0000
vn -0.0000 -0.0000 -1.0000
vn -0.0000 0.1465 0.9892
vn -1.0000 -0.0000 -0.0000
vn -0.5061 0.1264 0.8532
vn -0.5047 -0.1460 0.8508
vn 1.0000 -0.0000 -0.0000
vn 0.5061 0.1264 0.8532
vn 0.5047 -0.1460 0.8508
vn 0.7044 0.0868 -0.7044
vn 0.7044 0.0868 0.7044
vn -0.7044 0.0868 0.7044
vn -0.7044 0.0868 -0.7044
vn -0.0000 -1.0000 -0.0000
vn 0.9975 0.0705 -0.0000
vn -0.0000 0.0705 -0.9975
vn -0.0000 0.0705 0.9975
vn -0.9975 0.0705 -0.0000
vn 0.7071 -0.0000 0.7071
vn -0.7071 -0.0000 0.7071
vn -0.7071 -0.0000 -0.7071
vn 0.7071 -0.0000 -0.7071
vn -0.0000 -0.0000 1.0000
vn 0.9996 -0.0276 -0.0000
vn -0.0000 -0.0276 0.9996
vn -0.9996 -0.0276 -0.0000
vn -0.7068 -0.0276 -0.7068
vn 0.7068 -0.0276 -0.7068
vn 0.7068 -0.0276 0.7068
vn -0.7068 -0.0276 0.7068
vn -0.0000 -0.0276 -0.9996
vn -1.0000 0.0054 -0.0000
vn 1.0000 0.0054 -0.0000
vn -0.0000 0.0054 -1.0000
vn -0.0000 0.0054 1.0000
vn -0.0000 -0.2389 -0.9710
vn -0.0000 0.2389 0.9710
vn -0.0000 -0.9710 0.2389
vn -0.0000 0.9710 -0.2389
vt 0.648190 0.848340
vt 0.627188 0.877778
vt 0.626284 0.848277
vt 0.730599 0.878239
vt 0.656265 0.901160
vt 0.649070 0.874309
vt 0.754191 0.878629
vt 0.729853 0.904504
vt 0.565396 0.879264
vt 0.565153 0.848101
vt 0.814886 0.848821
vt 0.814712 0.879059
vt 0.754438 0.848647
vt 0.632323 0.908184
vt 0.666400 0.975475
vt 0.642556 0.978830
vt 0.581717 0.988505
vt 0.568649 0.910250
vt 0.753792 0.904935
vt 0.627359 0.818782
vt 0.656569 0.795568
vt 0.730770 0.818918
vt 0.649220 0.822377
vt 0.730175 0.792649
vt 0.754363 0.818663
vt 0.565575 0.816939
vt 0.814886 0.818583
vt 0.632668 0.788406
vt 0.667133 0.721312
vt 0.582527 0.707794
vt 0.569008 0.785973
vt 0.754117 0.792356
vt 0.990709 0.707794
vt 0.827737 0.782743
vt 0.815544 0.785697
vt 0.998349 0.823640
vt 0.864953 0.802028
vt 0.999671 0.809434
vt 0.859877 0.831238
vt 0.978363 0.904661
vt 0.969175 0.916495
vt 0.829439 0.841735
vt 0.896792 0.955434
vt 0.884425 0.960974
vt 0.864135 0.827584
vt 0.866640 0.811391
vt 0.839876 0.842590
vt 0.817607 0.683817
vt 0.817607 0.684475
vt 0.817607 0.685133
vt 0.730900 0.848579
vt 0.814506 0.905408
vt 0.643309 0.717820
vt 0.814833 0.792233
vt 0.996752 0.724879
vt 0.815544 0.981853
s 0
f 53/75/24 50/76/24 57/77/24
f 47/78/25 61/79/25 49/80/25
f 51/81/26 62/82/26 47/78/26
f 57/77/27 48/83/27 52/84/27
f 51/81/26 54/85/26 46/86/26
f 53/75/25 47/78/25 49/80/25
f 47/78/26 56/87/26 51/81/26
f 58/88/28 62/89/28 63/90/28
f 58/88/28 60/91/28 59/92/28
f 50/76/29 59/92/29 48/83/29
f 50/76/30 61/79/30 58/88/30
f 46/86/26 63/93/26 51/81/26
f 68/94/24 53/75/24 57/77/24
f 73/95/25 65/96/25 67/97/25
f 74/98/26 69/99/26 65/96/26
f 66/100/27 57/77/27 52/84/27
f 54/85/26 69/99/26 64/101/26
f 65/96/25 53/75/25 67/97/25
f 56/87/26 65/96/26 69/99/26
f 70/102/31 74/103/31 73/95/31
f 72/104/31 70/102/31 71/105/31
f 71/105/32 68/94/32 66/100/32
f 68/94/33 73/95/33 67/97/33
f 75/106/26 64/101/26 69/99/26
f 79/107/34 77/108/34 76/109/34
f 82/110/35 80/111/35 83/112/35
f 89/113/36 91/114/36 90/115/36
f 85/116/37 87/117/37 86/118/37
f 89/113/38 85/116/38 77/108/38
f 77/108/39 83/112/39 80/111/39
f 86/118/40 76/109/40 85/116/40
f 82/110/41 88/119/41 81/120/41
f 89/113/42 87/117/42 84/121/42
f 102/122/38 98/122/38 96/122/38
f 103/122/28 104/122/28 98/122/28
f 99/122/26 93/122/26 96/122/26
f 97/122/31 95/122/31 101/122/31
f 101/122/43 107/122/43 100/122/43
f 102/122/44 105/122/44 103/122/44
f 98/122/45 92/122/45 99/122/45
f 96/122/46 94/122/46 97/122/46
f 100/122/47 106/122/47 102/122/47
f 114/122/25 118/122/25 117/122/25
f 120/122/48 119/122/48 114/122/48
f 109/122/49 115/122/49 112/122/49
f 111/122/50 113/122/50 117/122/50
f 123/122/51 117/122/51 116/122/51
f 119/122/52 122/122/52 118/122/52
f 108/122/53 114/122/53 115/122/53
f 113/122/54 109/122/54 112/122/54
f 122/122/55 116/122/55 118/122/55
f 104/122/25 108/122/25 92/122/25
f 92/122/25 109/122/25 93/122/25
f 93/122/25 110/122/25 94/122/25
f 95/122/25 110/122/25 111/122/25
f 104/122/25 121/122/25 120/122/25
f 106/122/25 121/122/25 105/122/25
f 107/122/25 122/122/25 106/122/25
f 95/122/25 123/122/25 107/122/25
f 125/123/31 126/123/31 124/123/31
f 127/123/47 130/123/47 126/123/47
f 131/123/28 128/123/28 130/123/28
f 129/123/26 124/123/26 128/123/26
f 126/123/38 128/123/38 124/123/38
f 131/123/56 135/123/56 129/123/56
f 133/123/25 135/123/25 134/123/25
f 125/123/57 133/123/57 127/123/57
f 129/123/58 132/123/58 125/123/58
f 127/123/59 134/123/59 131/123/59
f 137/124/31 138/124/31 136/124/31
f 139/124/47 142/124/47 138/124/47
f 143/124/28 140/124/28 142/124/28
f 141/124/26 136/124/26 140/124/26
f 142/124/38 136/124/38 138/124/38
f 139/124/25 141/124/25 143/124/25
f 145/124/60 146/124/60 144/124/60
f 147/124/31 150/124/31 146/124/31
f 151/124/61 148/124/61 150/124/61
f 149/124/28 144/124/28 148/124/28
f 150/124/62 144/124/62 146/124/62
f 147/124/63 149/124/63 151/124/63
f 53/75/24 49/80/24 50/76/24
f 47/78/25 62/82/25 61/79/25
f 51/81/26 63/93/26 62/82/26
f 57/77/27 50/76/27 48/83/27
f 51/81/26 56/87/26 54/85/26
f 53/75/25 55/125/25 47/78/25
f 47/78/26 55/125/26 56/87/26
f 58/88/28 61/79/28 62/89/28
f 58/88/28 63/90/28 60/91/28
f 50/76/29 58/88/29 59/92/29
f 50/76/30 49/80/30 61/79/30
f 46/86/26 60/126/26 63/93/26
f 68/94/24 67/97/24 53/75/24
f 73/95/25 74/98/25 65/96/25
f 74/98/26 75/106/26 69/99/26
f 66/100/27 68/94/27 57/77/27
f 54/85/26 56/87/26 69/99/26
f 65/96/25 55/125/25 53/75/25
f 56/87/26 55/125/26 65/96/26
f 70/102/31 75/127/31 74/103/31
f 72/104/31 75/127/31 70/102/31
f 71/105/32 70/102/32 68/94/32
f 68/94/33 70/102/33 73/95/33
f 75/106/26 72/128/26 64/101/26
f 79/107/34 78/129/34 77/108/34
f 82/110/35 81/120/35 80/111/35
f 89/113/36 88/119/36 91/114/36
f 85/116/37 84/121/37 87/117/37
f 77/108/38 80/111/38 81/120/38
f 81/120/38 88/119/38 89/113/38
f 89/113/38 84/121/38 85/116/38
f 85/116/38 76/109/38 77/108/38
f 77/108/38 81/120/38 89/113/38
f 77/108/39 78/129/39 83/112/39
f 86/118/40 79/130/40 76/109/40
f 82/110/41 91/114/41 88/119/41
f 89/113/42 90/115/42 87/117/42
f 96/122/38 97/122/38 101/122/38
f 101/122/38 100/122/38 102/122/38
f 102/122/38 103/122/38 98/122/38
f 98/122/38 99/122/38 96/122/38
f 96/122/38 101/122/38 102/122/38
f 103/122/28 105/122/28 104/122/28
f 99/122/26 92/122/26 93/122/26
f 97/122/31 94/122/31 95/122/31
f 101/122/43 95/122/43 107/122/43
f 102/122/44 106/122/44 105/122/44
f 98/122/45 104/122/45 92/122/45
f 96/122/46 93/122/46 94/122/46
f 100/122/47 107/122/47 106/122/47
f 117/122/25 113/122/25 112/122/25
f 112/122/25 115/122/25 114/122/25
f 114/122/25 119/122/25 118/122/25
f 118/122/25 116/122/25 117/122/25
f 117/122/25 112/122/25 114/122/25
f 120/122/48 121/122/48 119/122/48
f 109/122/49 108/122/49 115/122/49
f 111/122/50 110/122/50 113/122/50
f 123/122/51 111/122/51 117/122/51
f 119/122/52 121/122/52 122/122/52
f 108/122/53 120/122/53 114/122/53
f 113/122/54 110/122/54 109/122/54
f 122/122/55 123/122/55 116/122/55
f 104/122/25 120/122/25 108/122/25
f 92/122/25 108/122/25 109/122/25
f 93/122/25 109/122/25 110/122/25
f 95/122/25 94/122/25 110/122/25
f 104/122/25 105/122/25 121/122/25
f 106/122/25 122/122/25 121/122/25
f 107/122/25 123/122/25 122/122/25
f 95/122/25 111/122/25 123/122/25
f 125/123/31 127/123/31 126/123/31
f 127/123/47 131/123/47 130/123/47
f 131/123/28 129/123/28 128/123/28
f 129/123/26 125/123/26 124/123/26
f 126/123/38 130/123/38 128/123/38
f 131/123/56 134/123/56 135/123/56
f 133/123/25 132/123/25 135/123/25
f 125/123/57 132/123/57 133/123/57
f 129/123/58 135/123/58 132/123/58
f 127/123/59 133/123/59 134/123/59
f 137/124/31 139/124/31 138/124/31
f 139/124/47 143/124/47 142/124/47
f 143/124/28 141/124/28 140/124/28
f 141/124/26 137/124/26 136/124/26
f 142/124/38 140/124/38 136/124/38
f 139/124/25 137/124/25 141/124/25
f 145/124/60 147/124/60 146/124/60
f 147/124/31 151/124/31 150/124/31
f 151/124/61 149/124/61 148/124/61
f 149/124/28 145/124/28 144/124/28
f 150/124/62 148/124/62 144/124/62
f 147/124/63 145/124/63 149/124/63
o turrets
v -0.071534 0.084387 0.096002
v -0.071534 0.104081 0.090736
v -0.082243 0.084387 0.093132
v -0.079610 0.104081 0.088572
v -0.090082 0.084387 0.085293
v -0.085521 0.104081 0.082660
v -0.092951 0.084387 0.074585
v -0.087685 0.104081 0.074585
v -0.090082 0.084387 0.063877
v -0.085521 0.104081 0.066510
v -0.082243 0.084387 0.056038
v -0.079610 0.104081 0.060598
v -0.071534 0.084387 0.053169
v -0.071534 0.104081 0.058435
v -0.060826 0.084387 0.056038
v -0.063459 0.104081 0.060598
v -0.052987 0.084387 0.063877
v -0.057548 0.104081 0.066510
v -0.050118 0.084387 0.074585
v -0.055384 0.104081 0.074585
v -0.052987 0.084387 0.085293
v -0.057548 0.104081 0.082660
v -0.060826 0.084387 0.093132
v -0.063459 0.104081 0.088572
v -0.071534 0.093496 0.092048
v -0.080266 0.093496 0.089709
v -0.086658 0.093496 0.083317
v -0.088997 0.093496 0.074585
v -0.086658 0.093496 0.065854
v -0.080266 0.093496 0.059462
v -0.071534 0.093496 0.057122
v -0.062803 0.093496 0.059462
v -0.056411 0.093496 0.065854
v -0.054071 0.093496 0.074585
v -0.056411 0.093496 0.083317
v -0.062803 0.093496 0.089709
v 0.071534 0.084387 0.096002
v 0.071534 0.104081 0.090736
v 0.082243 0.084387 0.093132
v 0.079610 0.104081 0.088572
v 0.090082 0.084387 0.085293
v 0.085521 0.104081 0.082660
v 0.092951 0.084387 0.074585
v 0.087685 0.104081 0.074585
v 0.090082 0.084387 0.063877
v 0.085521 0.104081 0.066510
v 0.082243 0.084387 0.056038
v 0.079610 0.104081 0.060598
v 0.071534 0.084387 0.053169
v 0.071534 0.104081 0.058435
v 0.060826 0.084387 0.056038
v 0.063459 0.104081 0.060598
v 0.052987 0.084387 0.063877
v 0.057548 0.104081 0.066510
v 0.050118 0.084387 0.074585
v 0.055384 0.104081 0.074585
v 0.052987 0.084387 0.085293
v 0.057548 0.104081 0.082660
v 0.060826 0.084387 0.093132
v 0.063459 0.104081 0.088572
v 0.071534 0.093496 0.092048
v 0.080266 0.093496 0.089709
v 0.086658 0.093496 0.083317
v 0.088997 0.093496 0.074585
v 0.086658 0.093496 0.065854
v 0.080266 0.093496 0.059462
v 0.071534 0.093496 0.057122
v 0.062803 0.093496 0.059462
v 0.056411 0.093496 0.065854
v 0.054071 0.093496 0.074585
v 0.056411 0.093496 0.083317
v 0.062803 0.093496 0.089709
vn -0.2570 0.1189 0.9591
vn -0.7021 0.1189 0.7021
vn -0.9591 0.1189 0.2570
vn -0.9591 0.1189 -0.2570
vn -0.7021 0.1189 -0.7021
vn -0.2570 0.1189 -0.9591
vn 0.2570 0.1189 -0.9591
vn 0.7021 0.1189 -0.7021
vn 0.9591 0.1189 -0.2570
vn 0.9591 0.1189 0.2570
vn -0.0000 1.0000 -0.0000
vn 0.7021 0.1189 0.7021
vn 0.2570 0.1189 0.9591
vn 0.2387 0.3867 0.8908
vn 0.6521 0.3867 0.6521
vn 0.8908 0.3867 0.2387
vn 0.8908 0.3867 -0.2387
vn 0.6521 0.3867 -0.6521
vn 0.2387 0.3867 -0.8908
vn -0.2387 0.3867 -0.8908
vn -0.6521 0.3867 -0.6521
vn -0.8908 0.3867 -0.2387
vn -0.8908 0.3867 0.2387
vn -0.6521 0.3867 0.6521
vn -0.2387 0.3867 0.8908
vt 0.845135 0.647174
vt 0.836427 0.633093
vt 0.848845 0.636457
vt 0.851030 0.625280
vt 0.838262 0.623593
vt 0.851946 0.613895
vt 0.838927 0.613842
vt 0.851361 0.602441
vt 0.838359 0.604041
vt 0.849373 0.591116
vt 0.836535 0.594359
vt 0.845596 0.580252
vt 0.829358 0.576194
vt 0.840857 0.569762
vt 0.834596 0.560116
vt 0.823940 0.567878
vt 0.827383 0.551613
vt 0.826887 0.674652
vt 0.823760 0.659028
vt 0.833872 0.666496
vt 0.048896 0.905636
vt 0.072894 0.881638
vt 0.081678 0.914420
vt 0.840194 0.657319
vt 0.833190 0.642222
vt 0.850404 0.663330
vt 0.856252 0.651860
vt 0.843148 0.673890
vt 0.834491 0.683159
vt 0.844438 0.552812
vt 0.835528 0.542746
vt 0.851472 0.563921
vt 0.857030 0.575740
vt 0.860990 0.588133
vt 0.863389 0.600872
vt 0.864132 0.613901
vt 0.863146 0.626971
vt 0.860432 0.639627
vt 0.892084 0.578365
vt 0.883211 0.592661
vt 0.879993 0.583358
vt 0.897986 0.600389
vt 0.895759 0.589163
vt 0.899116 0.611813
vt 0.885253 0.602221
vt 0.898317 0.623268
vt 0.885943 0.611986
vt 0.896470 0.634605
vt 0.885499 0.621775
vt 0.892755 0.645485
vt 0.883679 0.631405
vt 0.876524 0.649583
vt 0.880754 0.640755
vt 0.881796 0.665666
vt 0.888042 0.655997
vt 0.874591 0.674192
vt 0.871116 0.657916
vt 0.873803 0.551178
vt 0.870706 0.566473
vt 0.864790 0.559156
vt 0.101263 0.881638
vt 0.125261 0.905636
vt 0.092479 0.914420
vt 0.886998 0.568286
vt 0.880821 0.559123
vt 0.875822 0.574550
vt 0.897106 0.562066
vt 0.889763 0.551741
vt 0.881148 0.542746
vt 0.891664 0.672960
vt 0.898686 0.661822
vt 0.904229 0.649972
vt 0.908170 0.637526
vt 0.910531 0.624686
vt 0.911178 0.611645
vt 0.910182 0.598615
vt 0.907454 0.585778
vt 0.903078 0.573505
vt 0.833600 0.585012
vt 0.817606 0.560010
vt 0.817606 0.666502
vt 0.072894 0.919491
vt 0.062751 0.919491
vt 0.053968 0.914420
vt 0.048896 0.895494
vt 0.053968 0.886710
vt 0.062751 0.881638
vt 0.081678 0.886710
vt 0.086749 0.895493
vt 0.086749 0.905636
vt 0.828981 0.650981
vt 0.864790 0.665803
vt 0.087408 0.905636
vt 0.087408 0.895493
vt 0.092479 0.886710
vt 0.111406 0.881638
vt 0.120189 0.886710
vt 0.125261 0.895494
vt 0.120189 0.914420
vt 0.111406 0.919491
vt 0.101263 0.919491
vt 0.882762 0.683054
s 0
f 176/131/64 155/132/64 177/133/64
f 155/132/65 178/134/65 177/133/65
f 157/135/66 179/136/66 178/134/66
f 159/137/67 180/138/67 179/136/67
f 161/139/68 181/140/68 180/138/68
f 163/141/69 182/142/69 181/140/69
f 182/142/70 167/143/70 183/144/70
f 167/143/71 184/145/71 183/144/71
f 169/146/72 185/147/72 184/145/72
f 185/148/73 173/149/73 186/150/73
f 173/151/74 165/152/74 157/153/74
f 173/149/75 187/154/75 186/150/75
f 187/154/76 153/155/76 176/131/76
f 174/156/77 176/131/77 152/157/77
f 186/150/78 174/156/78 172/158/78
f 185/148/79 172/158/79 170/159/79
f 168/160/80 185/147/80 170/161/80
f 183/144/81 168/160/81 166/162/81
f 182/142/82 166/162/82 164/163/82
f 162/164/83 182/142/83 164/163/83
f 160/165/84 181/140/84 162/164/84
f 158/166/85 180/138/85 160/165/85
f 156/167/86 179/136/86 158/166/86
f 154/168/87 178/134/87 156/167/87
f 176/131/88 154/168/88 152/157/88
f 212/169/76 191/170/76 189/171/76
f 214/172/75 191/170/75 213/173/75
f 215/174/73 193/175/73 214/172/73
f 216/176/72 195/177/72 215/174/72
f 217/178/71 197/179/71 216/176/71
f 218/180/70 199/181/70 217/178/70
f 218/180/69 203/182/69 201/183/69
f 220/184/68 203/182/68 219/185/68
f 221/186/67 205/187/67 220/184/67
f 221/188/66 209/189/66 207/190/66
f 197/191/74 205/192/74 189/193/74
f 223/194/65 209/189/65 222/195/65
f 223/194/64 189/171/64 211/196/64
f 210/197/88 212/169/88 223/194/88
f 210/197/87 222/195/87 208/198/87
f 208/198/86 221/188/86 206/199/86
f 204/200/85 221/186/85 220/184/85
f 204/200/84 219/185/84 202/201/84
f 202/201/83 218/180/83 200/202/83
f 198/203/82 218/180/82 217/178/82
f 196/204/81 217/178/81 216/176/81
f 194/205/80 216/176/80 215/174/80
f 192/206/79 215/174/79 214/172/79
f 190/207/78 214/172/78 213/173/78
f 190/207/77 212/169/77 188/208/77
f 176/131/64 153/155/64 155/132/64
f 155/132/65 157/135/65 178/134/65
f 157/135/66 159/137/66 179/136/66
f 159/137/67 161/139/67 180/138/67
f 161/139/68 163/141/68 181/140/68
f 163/141/69 165/209/69 182/142/69
f 182/142/70 165/209/70 167/143/70
f 167/143/71 169/146/71 184/145/71
f 169/146/72 171/210/72 185/147/72
f 185/148/73 171/211/73 173/149/73
f 157/153/74 155/212/74 153/213/74
f 153/213/74 175/214/74 173/151/74
f 173/151/74 171/215/74 169/216/74
f 169/216/74 167/217/74 165/152/74
f 165/152/74 163/218/74 161/219/74
f 161/219/74 159/220/74 157/153/74
f 157/153/74 153/213/74 173/151/74
f 173/151/74 169/216/74 165/152/74
f 165/152/74 161/219/74 157/153/74
f 173/149/75 175/221/75 187/154/75
f 187/154/76 175/221/76 153/155/76
f 174/156/77 187/154/77 176/131/77
f 186/150/78 187/154/78 174/156/78
f 185/148/79 186/150/79 172/158/79
f 168/160/80 184/145/80 185/147/80
f 183/144/81 184/145/81 168/160/81
f 182/142/82 183/144/82 166/162/82
f 162/164/83 181/140/83 182/142/83
f 160/165/84 180/138/84 181/140/84
f 158/166/85 179/136/85 180/138/85
f 156/167/86 178/134/86 179/136/86
f 154/168/87 177/133/87 178/134/87
f 176/131/88 177/133/88 154/168/88
f 212/169/76 213/173/76 191/170/76
f 214/172/75 193/175/75 191/170/75
f 215/174/73 195/177/73 193/175/73
f 216/176/72 197/179/72 195/177/72
f 217/178/71 199/181/71 197/179/71
f 218/180/70 201/183/70 199/181/70
f 218/180/69 219/185/69 203/182/69
f 220/184/68 205/187/68 203/182/68
f 221/186/67 207/222/67 205/187/67
f 221/188/66 222/195/66 209/189/66
f 189/193/74 191/223/74 193/224/74
f 193/224/74 195/225/74 197/191/74
f 197/191/74 199/226/74 201/227/74
f 201/227/74 203/228/74 205/192/74
f 205/192/74 207/229/74 209/230/74
f 209/230/74 211/231/74 189/193/74
f 189/193/74 193/224/74 197/191/74
f 197/191/74 201/227/74 205/192/74
f 205/192/74 209/230/74 189/193/74
f 223/194/65 211/196/65 209/189/65
f 223/194/64 212/169/64 189/171/64
f 210/197/88 188/208/88 212/169/88
f 210/197/87 223/194/87 222/195/87
f 208/198/86 222/195/86 221/188/86
f 204/200/85 206/232/85 221/186/85
f 204/200/84 220/184/84 219/185/84
f 202/201/83 219/185/83 218/180/83
f 198/203/82 200/202/82 218/180/82
f 196/204/81 198/203/81 217/178/81
f 194/205/80 196/204/80 216/176/80
f 192/206/79 194/205/79 215/174/79
f 190/207/78 192/206/78 214/172/78
f 190/207/77 213/173/77 212/169/77
o props
v -0.093556 0.177974 -0.235848
v -0.067218 0.167064 -0.235848
v -0.056308 0.140725 -0.235848
v -0.067218 0.114387 -0.235848
v -0.093556 0.103477 -0.235848
v -0.119895 0.114387 -0.235848
v -0.130805 0.140725 -0.235848
v -0.119895 0.167064 -0.235848
v -0.093556 0.177974 -0.213728
v -0.067218 0.167064 -0.213728
v -0.056308 0.140725 -0.213728
v -0.067218 0.114387 -0.213728
v -0.093556 0.103477 -0.213728
v -0.119895 0.114387 -0.213728
v -0.130805 0.140725 -0.213728
v -0.119895 0.167064 -0.213728
v -0.070272 0.164010 -0.235848
v -0.093556 0.173655 -0.235848
v -0.060627 0.140725 -0.235848
v -0.070272 0.117441 -0.235848
v -0.093556 0.107796 -0.235848
v -0.116841 0.117441 -0.235848
v -0.126486 0.140725 -0.235848
v -0.116841 0.164010 -0.235848
v -0.068458 0.165824 -0.213728
v -0.093556 0.176220 -0.213728
v -0.058062 0.140725 -0.213728
v -0.068458 0.115627 -0.213728
v -0.093556 0.105231 -0.213728
v -0.118655 0.115627 -0.213728
v -0.129051 0.140725 -0.213728
v -0.118655 0.165824 -0.213728
v 0.093556 0.177974 -0.235848
v 0.067218 0.167064 -0.235848
v 0.056308 0.140725 -0.235848
v 0.067218 0.114387 -0.235848
v 0.093556 0.103477 -0.235848
v 0.119895 0.114387 -0.235848
v 0.130805 0.140725 -0.235848
v 0.119895 0.167064 -0.235848
v 0.093556 0.177974 -0.213728
v 0.067218 0.167064 -0.213728
v 0.056308 0.140725 -0.213728
v 0.067218 0.114387 -0.213728
v 0.093556 0.103477 -0.213728
v 0.119895 0.114387 -0.213728
v 0.130805 0.140725 -0.213728
v 0.119895 0.167064 -0.213728
v 0.070272 0.164010 -0.235848
v 0.093556 0.173655 -0.235848
v 0.060627 0.140725 -0.235848
v 0.070272 0.117441 -0.235848
v 0.093556 0.107796 -0.235848
v 0.116841 0.117441 -0.235848
v 0.126486 0.140725 -0.235848
v 0.116841 0.164010 -0.235848
v 0.068458 0.165824 -0.213728
v 0.093556 0.176220 -0.213728
v 0.058062 0.140725 -0.213728
v 0.068458 0.115627 -0.213728
v 0.093556 0.105231 -0.213728
v 0.118655 0.115627 -0.213728
v 0.129051 0.140725 -0.213728
v 0.118655 0.165824 -0.213728
v 0.000000 0.177825 -0.235848
v 0.026338 0.166915 -0.235848
v 0.037248 0.140577 -0.235848
v 0.026338 0.114238 -0.235848
v 0.000000 0.103329 -0.235848
v -0.026338 0.114238 -0.235848
v -0.037248 0.140577 -0.235848
v -0.026338 0.166915 -0.235848
v 0.000000 0.177825 -0.213728
v 0.026338 0.166915 -0.213728
v 0.037248 0.140577 -0.213728
v 0.026338 0.114238 -0.213728
v 0.000000 0.103329 -0.213728
v -0.026338 0.114238 -0.213728
v -0.037248 0.140577 -0.213728
v -0.026338 0.166915 -0.213728
v 0.023285 0.163862 -0.235848
v 0.000000 0.173506 -0.235848
v 0.032930 0.140577 -0.235848
v 0.023285 0.117292 -0.235848
v 0.000000 0.107647 -0.235848
v -0.023285 0.117292 -0.235848
v -0.032929 0.140577 -0.235848
v -0.023285 0.163862 -0.235848
v 0.025098 0.165675 -0.213728
v 0.000000 0.176071 -0.213728
v 0.035495 0.140577 -0.213728
v 0.025098 0.115478 -0.213728
v 0.000000 0.105082 -0.213728
v -0.025098 0.115478 -0.213728
v -0.035495 0.140577 -0.213728
v -0.025098 0.165675 -0.213728
v -0.086435 0.085167 -0.231909
v -0.086435 0.107637 -0.231909
v -0.086435 0.085167 -0.217666
v -0.086435 0.107637 -0.217666
v -0.100678 0.085167 -0.231909
v -0.100678 0.107637 -0.231909
v -0.100678 0.085167 -0.217666
v -0.100678 0.107637 -0.217666
v -0.090142 0.073707 -0.228202
v -0.090142 0.073707 -0.221374
v -0.096971 0.073707 -0.228202
v -0.096971 0.073707 -0.221374
v 0.086435 0.085167 -0.231909
v 0.086435 0.107637 -0.231909
v 0.086435 0.085167 -0.217666
v 0.086435 0.107637 -0.217666
v 0.100678 0.085167 -0.231909
v 0.100678 0.107637 -0.231909
v 0.100678 0.085167 -0.217666
v 0.100678 0.107637 -0.217666
v 0.090142 0.073707 -0.228202
v 0.090142 0.073707 -0.221374
v 0.096971 0.073707 -0.228202
v 0.096971 0.073707 -0.221374
v 0.007121 0.084609 -0.231993
v 0.007121 0.107079 -0.231993
v 0.007121 0.084609 -0.217751
v 0.007121 0.107079 -0.217751
v -0.007121 0.084609 -0.231993
v -0.007121 0.107079 -0.231993
v -0.007121 0.084609 -0.217751
v -0.007121 0.107079 -0.217751
v 0.000787 0.114055 -0.235714
v 0.000787 0.167099 -0.235714
v 0.000787 0.114055 -0.235127
v 0.000787 0.167099 -0.235127
v -0.000787 0.114055 -0.235714
v -0.000787 0.167099 -0.235714
v -0.000787 0.114055 -0.235127
v -0.000787 0.167099 -0.235127
v 0.001512 0.131736 -0.235714
v 0.001512 0.149417 -0.235714
v 0.001512 0.149417 -0.235127
v 0.001512 0.131736 -0.235127
v -0.001512 0.149417 -0.235127
v -0.001512 0.131736 -0.235127
v -0.001512 0.149417 -0.235714
v -0.001512 0.131736 -0.235714
v 0.026522 0.141364 -0.235714
v -0.026522 0.141364 -0.235714
v 0.026522 0.141364 -0.235127
v -0.026522 0.141364 -0.235127
v 0.026522 0.139790 -0.235714
v -0.026522 0.139790 -0.235714
v 0.026522 0.139790 -0.235127
v -0.026522 0.139790 -0.235127
v 0.008841 0.142089 -0.235714
v -0.008841 0.142089 -0.235714
v -0.008841 0.142089 -0.235127
v 0.008841 0.142089 -0.235127
v -0.008841 0.139065 -0.235127
v 0.008841 0.139065 -0.235127
v -0.008841 0.139065 -0.235714
v 0.008841 0.139065 -0.235714
v -0.092769 0.114203 -0.236141
v -0.092769 0.167247 -0.236141
v -0.092769 0.114203 -0.235554
v -0.092769 0.167247 -0.235554
v -0.094344 0.114203 -0.236141
v -0.094344 0.167247 -0.236141
v -0.094344 0.114203 -0.235554
v -0.094344 0.167247 -0.235554
v -0.092045 0.131885 -0.236141
v -0.092045 0.149566 -0.236141
v -0.092045 0.149566 -0.235554
v -0.092045 0.131885 -0.235554
v -0.095068 0.149566 -0.235554
v -0.095068 0.131885 -0.235554
v -0.095068 0.149566 -0.236141
v -0.095068 0.131885 -0.236141
v -0.067035 0.141513 -0.236141
v -0.120078 0.141513 -0.236141
v -0.067035 0.141513 -0.235554
v -0.120078 0.141513 -0.235554
v -0.067035 0.139938 -0.236141
v -0.120078 0.139938 -0.236141
v -0.067035 0.139938 -0.235554
v -0.120078 0.139938 -0.235554
v -0.084716 0.142237 -0.236141
v -0.102397 0.142237 -0.236141
v -0.102397 0.142237 -0.235554
v -0.084716 0.142237 -0.235554
v -0.102397 0.139213 -0.235554
v -0.084716 0.139213 -0.235554
v -0.102397 0.139213 -0.236141
v -0.084716 0.139213 -0.236141
v 0.092769 0.114203 -0.236141
v 0.092769 0.167247 -0.236141
v 0.092769 0.114203 -0.235554
v 0.092769 0.167247 -0.235554
v 0.094344 0.114203 -0.236141
v 0.094344 0.167247 -0.236141
v 0.094344 0.114203 -0.235554
v 0.094344 0.167247 -0.235554
v 0.092045 0.131885 -0.236141
v 0.092045 0.149566 -0.236141
v 0.092045 0.149566 -0.235554
v 0.092045 0.131885 -0.235554
v 0.095068 0.149566 -0.235554
v 0.095068 0.131885 -0.235554
v 0.095068 0.149566 -0.236141
v 0.095068 0.131885 -0.236141
v 0.067035 0.141513 -0.236141
v 0.120078 0.141513 -0.236141
v 0.067035 0.141513 -0.235554
v 0.120078 0.141513 -0.235554
v 0.067035 0.139938 -0.236141
v 0.120078 0.139938 -0.236141
v 0.067035 0.139938 -0.235554
v 0.120078 0.139938 -0.235554
v 0.084716 0.142237 -0.236141
v 0.102397 0.142237 -0.236141
v 0.102397 0.142237 -0.235554
v 0.084716 0.142237 -0.235554
v 0.102397 0.139213 -0.235554
v 0.084716 0.139213 -0.235554
v 0.102397 0.139213 -0.236141
v 0.084716 0.139213 -0.236141
vn -0.9239 0.3827 -0.0000
vn -0.3827 -0.9239 -0.0000
vn 0.9239 -0.3827 -0.0000
vn 0.3827 0.9239 -0.0000
vn -0.3827 0.9239 -0.0000
vn -0.9239 -0.3827 -0.0000
vn 0.3827 -0.9239 -0.0000
vn 0.9239 0.3827 -0.0000
vn 0.9186 -0.3805 0.1065
vn 0.3805 0.9186 0.1065
vn -0.9186 0.3805 0.1065
vn -0.3805 -0.9186 0.1065
vn 0.3805 -0.9186 0.1065
vn 0.9186 0.3805 0.1065
vn -0.3805 0.9186 0.1065
vn -0.9186 -0.3805 0.1065
vn -0.0000 -0.0000 -1.0000
vn -0.0000 -0.0000 1.0000
vn 1.0000 -0.0000 -0.0000
vn -1.0000 -0.0000 -0.0000
vn -0.9514 -0.3078 -0.0000
vn -0.0000 -0.3078 -0.9514
vn -0.0000 -0.3078 0.9514
vn 0.9514 -0.3078 -0.0000
vn -0.0000 -1.0000 -0.0000
vn 0.9992 0.0410 -0.0000
vn -0.9992 0.0409 -0.0000
vn -0.0000 1.0000 -0.0000
vn -0.9992 -0.0410 -0.0000
vn 0.9992 -0.0410 -0.0000
vn -0.0410 0.9992 -0.0000
vn -0.0409 -0.9992 -0.0000
vn 0.0409 -0.9992 -0.0000
vn 0.0409 0.9992 -0.0000
vn 0.9992 0.0409 -0.0000
vn -0.9992 0.0410 -0.0000
vn 0.9992 -0.0409 -0.0000
vn -0.0410 -0.9992 -0.0000
vn 0.0410 0.9992 -0.0000
vn -0.9992 -0.0409 -0.0000
vn 0.0410 -0.9992 -0.0000
vn -0.0409 0.9992 -0.0000
vt 0.853420 0.341625
vt 0.828736 0.370713
vt 0.828999 0.341027
vt 0.858456 0.271709
vt 0.829634 0.310327
vt 0.823148 0.273469
vt 0.855094 0.473523
vt 0.829260 0.503253
vt 0.829625 0.471546
vt 0.828295 0.404158
vt 0.855586 0.440306
vt 0.828961 0.438746
vt 0.854007 0.372439
vt 0.854806 0.310308
vt 0.854645 0.505651
vt 0.823361 0.541142
vt 0.877243 0.461729
vt 0.908187 0.433798
vt 0.903840 0.466469
vt 0.870556 0.491566
vt 0.886619 0.530032
vt 0.861266 0.520698
vt 0.870556 0.310176
vt 0.903840 0.335272
vt 0.877243 0.340013
vt 0.881277 0.370323
vt 0.909640 0.400871
vt 0.882625 0.400871
vt 0.881277 0.431418
vt 0.896632 0.498631
vt 0.861266 0.281043
vt 0.896632 0.303111
vt 0.908187 0.367943
vt 0.823543 0.438792
vt 0.857868 0.440306
vt 0.856982 0.473553
vt 0.824470 0.471501
vt 0.856780 0.505556
vt 0.824337 0.502781
vt 0.858375 0.542088
vt 0.860400 0.540997
vt 0.817606 0.277035
vt 0.860608 0.272856
vt 0.856955 0.310458
vt 0.824395 0.310737
vt 0.855220 0.341652
vt 0.823666 0.370681
vt 0.824597 0.340970
vt 0.856003 0.372397
vt 0.822359 0.404178
vt 0.857154 0.405493
vt 0.855031 0.405534
vt 0.891564 0.107513
vt 0.867247 0.074498
vt 0.893450 0.075367
vt 0.893973 0.041281
vt 0.863665 0.000329
vt 0.901208 0.001864
vt 0.892818 0.228743
vt 0.867399 0.199599
vt 0.891391 0.197577
vt 0.891317 0.168926
vt 0.865816 0.139660
vt 0.890385 0.139016
vt 0.866035 0.108301
vt 0.866816 0.040757
vt 0.899809 0.268582
vt 0.867506 0.231665
vt 0.867358 0.169188
vt 0.923762 0.068633
vt 0.954706 0.096563
vt 0.927795 0.098943
vt 0.933137 0.000329
vt 0.917074 0.038795
vt 0.907785 0.009663
vt 0.950358 0.195089
vt 0.917074 0.220186
vt 0.923762 0.190348
vt 0.956159 0.129490
vt 0.927795 0.160038
vt 0.929143 0.129490
vt 0.943150 0.031731
vt 0.943150 0.227250
vt 0.907785 0.249318
vt 0.896006 0.168795
vt 0.865451 0.199611
vt 0.895765 0.197432
vt 0.865364 0.231560
vt 0.905815 0.264664
vt 0.861102 0.267981
vt 0.863451 0.269272
vt 0.907127 0.005698
vt 0.861101 0.001660
vt 0.899696 0.041807
vt 0.865137 0.074487
vt 0.898743 0.075499
vt 0.863852 0.108255
vt 0.896676 0.107686
vt 0.895324 0.138957
vt 0.864057 0.139705
vt 0.865482 0.169248
vt 0.855009 0.070349
vt 0.829905 0.103033
vt 0.829098 0.069172
vt 0.858078 0.001106
vt 0.827838 0.037516
vt 0.823374 0.000329
vt 0.858596 0.169134
vt 0.831435 0.201132
vt 0.832963 0.168723
vt 0.856488 0.103885
vt 0.831756 0.136880
vt 0.853535 0.036857
vt 0.854582 0.233645
vt 0.822192 0.267902
vt 0.829245 0.233690
vt 0.856836 0.200897
vt 0.857915 0.137157
vt 0.926275 0.461729
vt 0.957219 0.433798
vt 0.952872 0.466469
vt 0.919588 0.491566
vt 0.935651 0.530032
vt 0.910298 0.520698
vt 0.930309 0.370323
vt 0.952872 0.335272
vt 0.957219 0.367943
vt 0.930309 0.431418
vt 0.958672 0.400871
vt 0.945664 0.498631
vt 0.910298 0.281043
vt 0.945664 0.303111
vt 0.919588 0.310176
vt 0.926275 0.340013
vt 0.931656 0.400871
vt 0.860290 0.002382
vt 0.855527 0.036944
vt 0.823846 0.069382
vt 0.822976 0.037948
vt 0.857253 0.070253
vt 0.858423 0.103803
vt 0.823999 0.103265
vt 0.860106 0.137084
vt 0.826491 0.137096
vt 0.860443 0.169166
vt 0.825833 0.200796
vt 0.828227 0.168680
vt 0.858999 0.201030
vt 0.824352 0.232991
vt 0.856582 0.233661
vt 0.858608 0.269912
vt 0.856204 0.271051
vt 0.817606 0.003702
vt 0.417894 0.838735
vt 0.393782 0.861529
vt 0.387347 0.845339
vt 0.421218 0.858914
vt 0.395443 0.875955
vt 0.420991 0.878448
vt 0.392930 0.889970
vt 0.417248 0.896768
vt 0.385611 0.904863
vt 0.379912 0.875503
vt 0.378980 0.884860
vt 0.379343 0.866014
vt 0.374418 0.857877
vt 0.027130 0.918201
vt 0.000329 0.902363
vt 0.028031 0.903653
vt 0.030126 0.931785
vt 0.001741 0.921943
vt 0.038072 0.945952
vt 0.006506 0.939825
vt 0.002548 0.881638
vt 0.034046 0.886686
vt 0.043352 0.926121
vt 0.048238 0.899174
vt 0.041894 0.917210
vt 0.043423 0.907905
vt 0.467533 0.907406
vt 0.452047 0.875309
vt 0.467533 0.861920
vt 0.437385 0.900857
vt 0.445677 0.872581
vt 0.421876 0.877546
vt 0.447385 0.865891
vt 0.428074 0.854431
vt 0.492809 0.918609
vt 0.498331 0.889125
vt 0.499121 0.889236
vt 0.494831 0.901600
vt 0.494492 0.888629
vt 0.493825 0.888622
vt 0.493806 0.888622
vt 0.489794 0.888854
vt 0.496597 0.853285
vt 0.495529 0.854820
vt 0.494391 0.836376
vt 0.495259 0.903113
vt 0.494351 0.901698
vt 0.494338 0.868589
vt 0.489794 0.868141
vt 0.495005 0.868616
vt 0.495991 0.854941
vt 0.494358 0.868590
vt 0.498825 0.868422
vt 0.499517 0.868376
vt 0.526665 0.911795
vt 0.530317 0.885358
vt 0.531121 0.885438
vt 0.527325 0.902741
vt 0.526144 0.884953
vt 0.526182 0.900629
vt 0.525374 0.884945
vt 0.525548 0.900844
vt 0.521178 0.885330
vt 0.525351 0.884945
vt 0.526642 0.847150
vt 0.527323 0.836376
vt 0.528061 0.845307
vt 0.526116 0.847071
vt 0.521178 0.862913
vt 0.525602 0.863243
vt 0.526357 0.863247
vt 0.525625 0.863243
vt 0.530528 0.863002
vt 0.531308 0.862944
vt 0.504130 0.896038
vt 0.504747 0.882096
vt 0.505403 0.882128
vt 0.503699 0.895998
vt 0.500875 0.882193
vt 0.502871 0.897422
vt 0.500175 0.882231
vt 0.505154 0.916627
vt 0.505424 0.882129
vt 0.510117 0.882605
vt 0.504586 0.844864
vt 0.506231 0.846675
vt 0.505631 0.846868
vt 0.510117 0.861330
vt 0.505342 0.836376
vt 0.506170 0.861653
vt 0.501503 0.861200
vt 0.500748 0.861112
vt 0.505424 0.861632
vt 0.506149 0.861653
vt 0.514931 0.836376
vt 0.511545 0.861951
vt 0.510775 0.861880
vt 0.514317 0.845273
vt 0.515775 0.862215
vt 0.515657 0.847421
vt 0.516481 0.862208
vt 0.515796 0.862215
vt 0.516189 0.847216
vt 0.520456 0.861853
vt 0.514715 0.897575
vt 0.516190 0.916053
vt 0.513894 0.899020
vt 0.516266 0.882950
vt 0.515258 0.897618
vt 0.520519 0.883369
vt 0.515538 0.882923
vt 0.511496 0.883199
vt 0.515517 0.882922
vt 0.510775 0.883257
vt 0.470343 0.890205
vt 0.475845 0.919481
vt 0.469561 0.890316
vt 0.474153 0.889710
vt 0.473402 0.904097
vt 0.474815 0.889702
vt 0.473826 0.902594
vt 0.478817 0.889930
vt 0.474302 0.902692
vt 0.474834 0.889702
vt 0.474263 0.836376
vt 0.472690 0.856337
vt 0.471897 0.854946
vt 0.473110 0.856302
vt 0.478817 0.869374
vt 0.474260 0.869832
vt 0.473602 0.869859
vt 0.474240 0.869833
vt 0.469836 0.869715
vt 0.469155 0.869673
vt 0.480662 0.890205
vt 0.486165 0.919481
vt 0.479880 0.890316
vt 0.484473 0.889710
vt 0.483722 0.904097
vt 0.485135 0.889702
vt 0.484146 0.902594
vt 0.489136 0.889930
vt 0.484622 0.902692
vt 0.485154 0.889702
vt 0.484582 0.836376
vt 0.483010 0.856337
vt 0.482216 0.854946
vt 0.483429 0.856302
vt 0.489136 0.869374
vt 0.484580 0.869832
vt 0.483922 0.869859
vt 0.484560 0.869833
vt 0.480156 0.869715
vt 0.479475 0.869673
vt 0.886619 0.271709
vt 0.817607 0.537485
vt 0.950358 0.063892
vt 0.954706 0.162418
vt 0.933137 0.258652
vt 0.898241 0.228132
vt 0.864725 0.040866
vt 0.935651 0.271709
vt 0.817606 0.264752
vt 0.411840 0.913394
vt 0.374418 0.892610
vt 0.012783 0.955855
vt 0.048238 0.933388
vt 0.442770 0.838735
s 0
f 238/233/89 231/234/89 230/235/89
f 236/236/90 229/237/90 228/238/90
f 234/239/91 227/240/91 226/241/91
f 224/242/92 233/243/92 225/244/92
f 239/245/93 224/242/93 231/234/93
f 237/246/94 230/235/94 229/237/94
f 235/247/95 228/248/95 227/240/95
f 233/243/96 226/241/96 225/244/96
f 246/249/97 255/250/97 254/251/97
f 245/252/98 252/253/98 244/254/98
f 243/255/99 250/256/99 242/257/99
f 240/258/100 249/259/100 241/260/100
f 241/260/101 255/250/101 247/261/101
f 246/249/102 253/262/102 245/252/102
f 244/263/103 251/264/103 243/255/103
f 242/257/104 248/265/104 240/258/104
f 226/241/105 240/266/105 225/244/105
f 234/239/106 248/267/106 250/268/106
f 227/240/105 242/269/105 226/241/105
f 234/239/106 251/270/106 235/247/106
f 228/248/105 243/271/105 227/240/105
f 236/272/106 251/270/106 252/273/106
f 229/237/105 244/274/105 228/238/105
f 237/246/106 252/275/106 253/276/106
f 230/235/105 245/277/105 229/237/105
f 238/233/106 253/276/106 254/278/106
f 230/235/105 247/279/105 246/280/105
f 238/233/106 255/281/106 239/245/106
f 231/234/105 241/282/105 247/279/105
f 225/244/105 241/282/105 224/242/105
f 239/245/106 249/283/106 232/284/106
f 232/284/106 248/267/106 233/243/106
f 263/285/96 270/286/96 262/287/96
f 261/288/95 268/289/95 260/290/95
f 259/291/94 266/292/94 258/293/94
f 257/294/93 264/295/93 256/296/93
f 256/296/92 271/297/92 263/285/92
f 262/287/91 269/298/91 261/288/91
f 260/299/90 267/300/90 259/291/90
f 258/293/89 265/301/89 257/294/89
f 278/302/104 287/303/104 279/304/104
f 284/305/103 277/306/103 276/307/103
f 282/308/102 275/309/102 274/310/102
f 281/311/101 272/312/101 273/313/101
f 287/303/100 273/313/100 279/304/100
f 285/314/99 278/302/99 277/306/99
f 283/315/98 276/316/98 275/309/98
f 272/312/97 282/308/97 274/310/97
f 272/317/105 258/293/105 257/294/105
f 282/318/106 265/301/106 266/292/106
f 274/319/105 259/291/105 258/293/105
f 283/320/106 266/292/106 267/300/106
f 259/291/105 276/321/105 260/299/105
f 284/322/106 267/300/106 268/323/106
f 276/324/105 261/288/105 260/290/105
f 269/298/106 284/325/106 268/289/106
f 277/326/105 262/287/105 261/288/105
f 286/327/106 269/298/106 270/286/106
f 278/328/105 263/285/105 262/287/105
f 287/329/106 270/286/106 271/297/106
f 279/330/105 256/296/105 263/285/105
f 273/331/105 257/294/105 256/296/105
f 281/332/106 271/297/106 264/295/106
f 280/333/106 264/295/106 265/301/106
f 299/334/95 292/335/95 291/336/95
f 297/337/96 290/338/96 289/339/96
f 302/340/89 295/341/89 294/342/89
f 300/343/90 293/344/90 292/335/90
f 298/345/91 291/336/91 290/338/91
f 296/346/92 289/347/92 288/348/92
f 303/349/93 288/348/93 295/341/93
f 301/350/94 294/342/94 293/344/94
f 307/351/103 316/352/103 315/353/103
f 306/354/104 312/355/104 304/356/104
f 310/357/97 319/358/97 318/359/97
f 308/360/98 317/361/98 316/352/98
f 307/351/99 314/362/99 306/354/99
f 304/363/100 313/364/100 305/365/100
f 305/365/101 319/358/101 311/366/101
f 310/357/102 317/361/102 309/367/102
f 298/345/106 312/368/106 314/369/106
f 290/338/105 307/370/105 306/371/105
f 298/345/106 315/372/106 299/334/106
f 292/335/105 307/370/105 291/336/105
f 300/343/106 315/372/106 316/373/106
f 293/344/105 308/374/105 292/335/105
f 300/343/106 317/375/106 301/350/106
f 294/342/105 309/376/105 293/344/105
f 302/340/106 317/375/106 318/377/106
f 294/342/105 311/378/105 310/379/105
f 303/349/106 318/377/106 319/380/106
f 288/348/105 311/378/105 295/341/105
f 289/347/105 305/381/105 288/348/105
f 296/346/106 319/380/106 313/382/106
f 296/346/106 312/383/106 297/384/106
f 290/338/105 304/385/105 289/339/105
f 321/386/107 322/387/107 320/388/107
f 323/389/106 326/390/106 322/387/106
f 327/391/108 324/392/108 326/390/108
f 325/393/105 320/394/105 324/392/105
f 324/392/109 331/395/109 326/390/109
f 320/394/110 330/396/110 324/392/110
f 326/390/111 329/397/111 322/387/111
f 322/387/112 328/398/112 320/388/112
f 334/399/108 333/400/108 332/401/108
f 338/402/106 335/403/106 334/399/106
f 336/404/107 339/405/107 338/402/107
f 332/401/105 337/406/105 336/407/105
f 343/408/112 336/404/112 338/402/112
f 342/409/110 332/401/110 336/407/110
f 341/410/111 338/402/111 334/399/111
f 340/411/109 334/399/109 332/401/109
f 345/412/107 346/413/107 344/414/107
f 347/415/106 350/416/106 346/413/106
f 351/417/108 348/418/108 350/416/108
f 349/419/105 344/414/105 348/418/105
f 346/413/113 348/418/113 344/414/113
f 353/420/114 362/421/114 361/422/114
f 362/421/106 359/423/106 364/424/106
f 359/423/115 366/425/115 364/424/115
f 366/426/105 353/420/105 361/427/105
f 354/428/113 356/429/113 352/430/113
f 355/431/116 357/432/116 359/423/116
f 367/433/105 352/430/105 356/429/105
f 366/426/105 360/434/105 367/433/105
f 365/435/117 356/429/117 358/436/117
f 364/424/108 367/437/108 365/435/108
f 363/438/106 358/436/106 354/428/106
f 362/421/106 365/435/106 363/438/106
f 360/439/118 354/428/118 352/430/118
f 361/422/107 363/438/107 360/439/107
f 369/440/119 378/441/119 377/442/119
f 371/443/106 380/444/106 378/441/106
f 375/445/120 382/446/120 380/444/120
f 373/447/105 377/448/105 382/449/105
f 374/450/107 368/451/107 370/452/107
f 371/443/108 373/447/108 375/445/108
f 372/453/105 376/454/105 368/451/105
f 382/449/105 376/454/105 383/455/105
f 381/456/121 372/453/121 374/450/121
f 380/444/113 383/457/113 381/456/113
f 370/452/106 381/456/106 374/450/106
f 378/441/106 381/456/106 379/458/106
f 376/459/122 370/452/122 368/451/122
f 377/442/116 379/458/116 376/459/116
f 385/460/123 394/461/123 393/462/123
f 387/463/106 396/464/106 394/461/106
f 391/465/124 398/466/124 396/464/124
f 389/467/105 393/468/105 398/469/105
f 390/470/113 384/471/113 386/472/113
f 387/463/116 389/467/116 391/465/116
f 399/473/105 384/471/105 388/474/105
f 398/469/105 392/475/105 399/473/105
f 397/476/117 388/474/117 390/470/117
f 396/464/108 399/477/108 397/476/108
f 395/478/106 390/470/106 386/472/106
f 394/461/106 397/476/106 395/478/106
f 392/479/125 386/472/125 384/471/125
f 393/462/107 395/478/107 392/479/107
f 401/480/119 410/481/119 409/482/119
f 403/483/106 412/484/106 410/481/106
f 407/485/126 414/486/126 412/487/126
f 405/488/105 409/489/105 414/486/105
f 406/490/107 400/491/107 402/492/107
f 403/483/108 405/488/108 407/485/108
f 415/493/105 400/491/105 404/494/105
f 414/486/105 408/495/105 415/493/105
f 413/496/121 404/494/121 406/490/121
f 412/487/113 415/493/113 413/496/113
f 411/497/106 406/490/106 402/492/106
f 410/481/106 413/498/106 411/497/106
f 408/499/127 402/492/127 400/491/127
f 409/482/116 411/497/116 408/499/116
f 426/500/115 417/501/115 425/502/115
f 428/503/106 419/504/106 426/500/106
f 430/505/114 423/506/114 428/503/114
f 425/507/105 421/508/105 430/509/105
f 416/510/113 422/511/113 418/512/113
f 421/508/116 419/504/116 423/506/116
f 420/513/105 424/514/105 431/515/105
f 424/514/105 430/509/105 431/515/105
f 420/513/118 429/516/118 422/511/118
f 431/517/107 428/503/107 429/516/107
f 418/512/106 429/516/106 427/518/106
f 429/516/106 426/500/106 427/518/106
f 418/512/128 424/519/128 416/510/128
f 427/518/108 425/502/108 424/519/108
f 442/520/127 433/521/127 441/522/127
f 444/523/106 435/524/106 442/520/106
f 446/525/129 439/526/129 444/523/129
f 441/527/105 437/528/105 446/529/105
f 432/530/108 438/531/108 434/532/108
f 437/528/107 435/524/107 439/526/107
f 436/533/105 440/534/105 447/535/105
f 440/534/105 446/529/105 447/535/105
f 436/533/120 445/536/120 438/531/120
f 447/537/113 444/523/113 445/536/113
f 434/532/106 445/536/106 443/538/106
f 445/536/106 442/520/106 443/538/106
f 434/532/119 440/539/119 432/530/119
f 443/538/116 441/522/116 440/539/116
f 238/233/89 239/245/89 231/234/89
f 236/236/90 237/246/90 229/237/90
f 234/239/91 235/247/91 227/240/91
f 224/242/92 232/284/92 233/243/92
f 239/245/93 232/284/93 224/242/93
f 237/246/94 238/233/94 230/235/94
f 235/247/95 236/272/95 228/248/95
f 233/243/96 234/239/96 226/241/96
f 246/249/97 247/261/97 255/250/97
f 245/252/98 253/262/98 252/253/98
f 243/255/99 251/264/99 250/256/99
f 240/258/100 248/265/100 249/259/100
f 241/260/101 249/259/101 255/250/101
f 246/249/102 254/251/102 253/262/102
f 244/263/103 252/540/103 251/264/103
f 242/257/104 250/256/104 248/265/104
f 226/241/105 242/269/105 240/266/105
f 234/239/106 233/243/106 248/267/106
f 227/240/105 243/271/105 242/269/105
f 234/239/106 250/268/106 251/270/106
f 228/248/105 244/541/105 243/271/105
f 236/272/106 235/247/106 251/270/106
f 229/237/105 245/277/105 244/274/105
f 237/246/106 236/236/106 252/275/106
f 230/235/105 246/280/105 245/277/105
f 238/233/106 237/246/106 253/276/106
f 230/235/105 231/234/105 247/279/105
f 238/233/106 254/278/106 255/281/106
f 231/234/105 224/242/105 241/282/105
f 225/244/105 240/266/105 241/282/105
f 239/245/106 255/281/106 249/283/106
f 232/284/106 249/283/106 248/267/106
f 263/285/96 271/297/96 270/286/96
f 261/288/95 269/298/95 268/289/95
f 259/291/94 267/300/94 266/292/94
f 257/294/93 265/301/93 264/295/93
f 256/296/92 264/295/92 271/297/92
f 262/287/91 270/286/91 269/298/91
f 260/299/90 268/323/90 267/300/90
f 258/293/89 266/292/89 265/301/89
f 278/302/104 286/542/104 287/303/104
f 284/305/103 285/314/103 277/306/103
f 282/308/102 283/315/102 275/309/102
f 281/311/101 280/543/101 272/312/101
f 287/303/100 281/311/100 273/313/100
f 285/314/99 286/542/99 278/302/99
f 283/315/98 284/544/98 276/316/98
f 272/312/97 280/543/97 282/308/97
f 272/317/105 274/319/105 258/293/105
f 282/318/106 280/333/106 265/301/106
f 274/319/105 275/545/105 259/291/105
f 283/320/106 282/318/106 266/292/106
f 259/291/105 275/545/105 276/321/105
f 284/322/106 283/320/106 267/300/106
f 276/324/105 277/326/105 261/288/105
f 269/298/106 285/546/106 284/325/106
f 277/326/105 278/328/105 262/287/105
f 286/327/106 285/546/106 269/298/106
f 278/328/105 279/330/105 263/285/105
f 287/329/106 286/327/106 270/286/106
f 279/330/105 273/331/105 256/296/105
f 273/331/105 272/317/105 257/294/105
f 281/332/106 287/329/106 271/297/106
f 280/333/106 281/332/106 264/295/106
f 299/334/95 300/343/95 292/335/95
f 297/337/96 298/345/96 290/338/96
f 302/340/89 303/349/89 295/341/89
f 300/343/90 301/350/90 293/344/90
f 298/345/91 299/334/91 291/336/91
f 296/346/92 297/384/92 289/347/92
f 303/349/93 296/346/93 288/348/93
f 301/350/94 302/340/94 294/342/94
f 307/351/103 308/360/103 316/352/103
f 306/354/104 314/362/104 312/355/104
f 310/357/97 311/366/97 319/358/97
f 308/360/98 309/367/98 317/361/98
f 307/351/99 315/353/99 314/362/99
f 304/363/100 312/547/100 313/364/100
f 305/365/101 313/364/101 319/358/101
f 310/357/102 318/359/102 317/361/102
f 298/345/106 297/337/106 312/368/106
f 290/338/105 291/336/105 307/370/105
f 298/345/106 314/369/106 315/372/106
f 292/335/105 308/374/105 307/370/105
f 300/343/106 299/334/106 315/372/106
f 293/344/105 309/376/105 308/374/105
f 300/343/106 316/373/106 317/375/106
f 294/342/105 310/379/105 309/376/105
f 302/340/106 301/350/106 317/375/106
f 294/342/105 295/341/105 311/378/105
f 303/349/106 302/340/106 318/377/106
f 288/348/105 305/381/105 311/378/105
f 289/347/105 304/548/105 305/381/105
f 296/346/106 303/349/106 319/380/106
f 296/346/106 313/382/106 312/383/106
f 290/338/105 306/371/105 304/385/105
f 321/386/107 323/389/107 322/387/107
f 323/389/106 327/391/106 326/390/106
f 327/391/108 325/393/108 324/392/108
f 325/393/105 321/549/105 320/394/105
f 324/392/109 330/396/109 331/395/109
f 320/394/110 328/550/110 330/396/110
f 326/390/111 331/395/111 329/397/111
f 322/387/112 329/397/112 328/398/112
f 334/399/108 335/403/108 333/400/108
f 338/402/106 339/405/106 335/403/106
f 336/404/107 337/551/107 339/405/107
f 332/401/105 333/400/105 337/406/105
f 343/408/112 342/552/112 336/404/112
f 342/409/110 340/411/110 332/401/110
f 341/410/111 343/408/111 338/402/111
f 340/411/109 341/410/109 334/399/109
f 345/412/107 347/415/107 346/413/107
f 347/415/106 351/417/106 350/416/106
f 351/417/108 349/419/108 348/418/108
f 349/419/105 345/553/105 344/414/105
f 346/413/113 350/416/113 348/418/113
f 353/420/123 355/431/123 362/421/123
f 362/421/106 355/431/106 359/423/106
f 359/423/124 357/432/124 366/425/124
f 366/426/105 357/432/105 353/420/105
f 354/428/113 358/436/113 356/429/113
f 355/431/116 353/420/116 357/432/116
f 367/433/105 360/434/105 352/430/105
f 366/426/105 361/427/105 360/434/105
f 365/435/117 367/437/117 356/429/117
f 364/424/108 366/425/108 367/437/108
f 363/438/106 365/435/106 358/436/106
f 362/421/106 364/424/106 365/435/106
f 360/439/125 363/438/125 354/428/125
f 361/422/107 362/421/107 363/438/107
f 369/440/130 371/443/130 378/441/130
f 371/443/106 375/445/106 380/444/106
f 375/445/120 373/447/120 382/446/120
f 373/447/105 369/440/105 377/448/105
f 374/450/107 372/453/107 368/451/107
f 371/443/108 369/440/108 373/447/108
f 372/453/105 383/455/105 376/454/105
f 382/449/105 377/448/105 376/454/105
f 381/456/121 383/457/121 372/453/121
f 380/444/113 382/446/113 383/457/113
f 370/452/106 379/458/106 381/456/106
f 378/441/106 380/444/106 381/456/106
f 376/459/127 379/458/127 370/452/127
f 377/442/116 378/441/116 379/458/116
f 385/460/114 387/463/114 394/461/114
f 387/463/106 391/465/106 396/464/106
f 391/465/115 389/467/115 398/466/115
f 389/467/105 385/460/105 393/468/105
f 390/470/113 388/474/113 384/471/113
f 387/463/116 385/460/116 389/467/116
f 399/473/105 392/475/105 384/471/105
f 398/469/105 393/468/105 392/475/105
f 397/476/128 399/477/128 388/474/128
f 396/464/108 398/466/108 399/477/108
f 395/478/106 397/476/106 390/470/106
f 394/461/106 396/464/106 397/476/106
f 392/479/118 395/478/118 386/472/118
f 393/462/107 394/461/107 395/478/107
f 401/480/130 403/483/130 410/481/130
f 403/483/106 407/485/106 412/484/106
f 407/485/126 405/488/126 414/486/126
f 405/488/105 401/480/105 409/489/105
f 406/490/107 404/494/107 400/491/107
f 403/483/108 401/480/108 405/488/108
f 415/493/105 408/495/105 400/491/105
f 414/486/105 409/489/105 408/495/105
f 413/496/129 415/493/129 404/494/129
f 412/487/113 414/486/113 415/493/113
f 411/497/106 413/498/106 406/490/106
f 410/481/106 412/484/106 413/498/106
f 408/499/122 411/497/122 402/492/122
f 409/482/116 410/481/116 411/497/116
f 426/500/124 419/504/124 417/501/124
f 428/503/106 423/506/106 419/504/106
f 430/505/123 421/508/123 423/506/123
f 425/507/105 417/501/105 421/508/105
f 416/510/113 420/513/113 422/511/113
f 421/508/116 417/501/116 419/504/116
f 420/513/105 416/510/105 424/514/105
f 424/514/105 425/507/105 430/509/105
f 420/513/125 431/517/125 429/516/125
f 431/517/107 430/505/107 428/503/107
f 418/512/106 422/511/106 429/516/106
f 429/516/106 428/503/106 426/500/106
f 418/512/117 427/518/117 424/519/117
f 427/518/108 426/500/108 425/502/108
f 442/520/122 435/524/122 433/521/122
f 444/523/106 439/526/106 435/524/106
f 446/525/129 437/528/129 439/526/129
f 441/527/105 433/521/105 437/528/105
f 432/530/108 436/533/108 438/531/108
f 437/528/107 433/521/107 435/524/107
f 436/533/105 432/530/105 440/534/105
f 440/534/105 441/527/105 446/529/105
f 436/533/126 447/537/126 445/536/126
f 447/537/113 446/525/113 444/523/113
f 434/532/106 438/531/106 445/536/106
f 445/536/106 444/523/106 442/520/106
f 434/532/130 443/538/130 440/539/130
f 443/538/116 442/520/116 441/522/116
